<?xml version="1.0" standalone="no"?>
<!DOCTYPE svg PUBLIC "-//W3C//DTD SVG 1.1//EN" "http://www.w3.org/Graphics/SVG/1.1/DTD/svg11.dtd" >
<svg>
<metadata>
Created by FontForge 20090914 at Mon May 17 09:09:47 2021
 By www-data
Copyright (c) 2016 by Typedepot. All rights reserved.
</metadata>
<defs>
<font id="Neumann" horiz-adv-x="638" >
  <font-face 
    font-family="Neumann"
    font-weight="400"
    font-stretch="normal"
    units-per-em="1000"
    panose-1="2 7 3 3 8 0 0 2 0 4"
    ascent="800"
    descent="-200"
    x-height="500"
    cap-height="860"
    bbox="-18.999 -288.999 1018 1160.12"
    underline-thickness="50"
    underline-position="-50"
    unicode-range="U+000D-U+04EF"
  />
<missing-glyph horiz-adv-x="610" 
d="M55 750h500v-750h-500v750zM98 721l211 -326l210 326h-421zM294 373l-211 328v-656zM323 373l204 -317v634zM309 351l-208 -322h415z" />
    <glyph glyph-name="f_f" unicode="ff" horiz-adv-x="641" 
d="M624 713h-62.998c2 16 3 31 3 45c0 36 -5.5 59.833 -16.5 71.5s-25.167 17.5 -42.5 17.5c-14.667 0 -26.5 -3 -35.5 -9s-15.667 -16 -20 -30s-7 -27.833 -8 -41.5s-1.5 -32.167 -1.5 -55.5v-211h132v-25h-132v-450h97v-25h-250v25h80v450h-69v-1h-117v-474h-153v26h80
v448h-80v26h80v193c0 36.667 5 67.5 15 92.5s24.333 43.333 43 55s37.5 19.667 56.5 24s41.167 6.5 66.5 6.5c41.333 -0.666992 78.666 -12.667 111.999 -36c22 23.333 56.333 35 103 35c39.333 0 69.666 -8.33301 90.999 -25s32 -47 32 -91c0 -13.333 -1 -27 -3 -41z
M367.002 500l-1 208.001c0 44.667 6 79 18 103l-1 1c-26 22.667 -55.333 34.667 -88 36c-10 0 -18.333 -0.333008 -25 -1s-16.167 -3.83398 -28.5 -9.50098s-22.333 -13.667 -30 -24s-14.667 -26 -21 -47s-9.5 -46.5 -9.5 -76.5v-190h186z" />
    <glyph glyph-name="f_i" unicode="fi" horiz-adv-x="541" 
d="M450 25h62.998v-25h-227v25h91v450h-196l1 -474l-154 -1v26h80v449h-80v25h80l1 203c0.666992 112 58.334 168 173.001 168c112 0 168 -46.333 168 -139v-52h-73v46c0 16 -0.333008 28.833 -1 38.5s-2.66699 20.5 -6 32.5s-8.33301 21.167 -15 27.5
s-16.167 11.833 -28.5 16.5s-27.166 7 -44.499 7c-31.333 0 -56 -10.5 -74 -31.5s-27 -63.167 -27 -126.5v-190h269v-475z" />
    <glyph glyph-name="f_l" unicode="fl" horiz-adv-x="552" 
d="M495 25l24.999 0.000976562v-25h-87c-18.667 0 -32.5 2.83301 -41.5 8.5s-13.5 17.5 -13.5 35.5v682c0 19.333 -0.833008 35.166 -2.5 47.499s-5.66699 24.833 -12 37.5s-16.333 22 -30 28s-31.5 9 -53.5 9c-31.333 0 -55.5 -10.5 -72.5 -31.5
s-25.5 -63.167 -25.5 -126.5v-190h109v-25h-109l1 -449h92v-26h-247v26h81v449h-80v25h80l1 203c0.666992 64 16.167 108 46.5 132s71.5 36 123.5 36c52.667 0 94.334 -11.667 125.001 -35s46 -59.333 46 -108v-647c0 -37.333 14.667 -56 44 -56z" />
    <glyph glyph-name="f_f_i" unicode="ffi" horiz-adv-x="809" 
d="M718 25h62.999v-25h-207v25h71v449h-196l1 -473l-144 -1v26h70v448h-195v-474h-153v26h80v448h-80v26h80v193c0 36.667 5 67.5 15 92.5s24.333 43.333 43 55s37.5 19.667 56.5 24s41.167 6.5 66.5 6.5c47.333 -0.666992 89 -16 125 -46c26.667 30.667 70.667 46 132 46
c50 0 91.167 -11.167 123.5 -33.5s48.5 -57.5 48.5 -105.5v-52h-73v46c0 38 -7.16699 67.833 -21.5 89.5s-40.166 32.5 -77.499 32.5c-14.667 0 -27.167 -1.83301 -37.5 -5.5s-20.333 -10.667 -30 -21s-17 -26.5 -22 -48.5s-7.5 -49.667 -7.5 -83v-190h269v-475z
M375.999 500l1 203.001c0 42 7 74.667 21 98c-26 30 -60.333 45.667 -103 47c-10 0 -18.333 -0.333008 -25 -1s-16.167 -3.83398 -28.5 -9.50098s-22.333 -13.667 -30 -24s-14.667 -26 -21 -47s-9.5 -46.5 -9.5 -76.5v-190h195z" />
    <glyph glyph-name="f_f_l" unicode="ffl" horiz-adv-x="819" 
d="M762 25l25 0.000976562v-25h-87c-18.667 0 -32.5 2.83301 -41.5 8.5s-13.5 17.5 -13.5 35.5l1 682c0 19.333 -0.833008 35.166 -2.5 47.499s-5.66699 24.833 -12 37.5s-16.333 22 -30 28s-31.5 9 -53.5 9c-14.667 0 -27.167 -1.83301 -37.5 -5.5s-20.333 -10.667 -30 -21
s-17.167 -26.5 -22.5 -48.5s-8 -49.667 -8 -83l-1 -190h109v-25h-109l1 -449h92v-26h-237v26h71v449l-195 -1v-474h-153v26h80v448h-80v26h80v193c0 30 3.5 56 10.5 78s16 39.333 27 52s24.833 22.834 41.5 30.501s33 12.667 49 15s33.667 3.16602 53 2.49902
c47.333 -0.666992 89 -16 125 -46c27.333 30.667 71.666 46 132.999 46c52.667 0 94.334 -11.667 125.001 -35s46 -59.333 46 -108v-657c0 -16.667 3 -28.5 9 -35.5s17.667 -10.5 35 -10.5zM376 500.001l1 203.001c0 44.667 6 77 18 97c-29.333 32 -62.333 48 -99 48
c-9.33301 0 -17.5 -0.333008 -24.5 -1s-16.667 -3.83398 -29 -9.50098s-22.333 -13.667 -30 -24s-14.667 -26 -21 -47s-9.5 -46.5 -9.5 -76.5l-1 -190h195z" />
    <glyph glyph-name="f_b" unicode="fb" horiz-adv-x="844" 
d="M774 365c7.33301 -38 10.998 -78.332 10.998 -120.999c0 -39.333 -3.33301 -75.333 -10 -108c-10 -46.667 -28 -82.167 -54 -106.5s-68.667 -36.5 -128 -36.5c-84.667 0 -135 37.667 -151 113l-4 -106h-60v726c0 19.333 -0.833008 35.166 -2.5 47.499
s-5.66699 24.833 -12 37.5s-16.333 22 -30 28s-31.5 9 -53.5 9c-31.333 0 -55.5 -10.5 -72.5 -31.5s-25.5 -63.167 -25.5 -126.5v-190h109v-25h-109l1 -450h92v-25h-247v25h81v450h-80v25h80l1 203c0.666992 64 16.167 108 46.5 132s71.5 36 123.5 36
c52.667 0 94.334 -11.667 125.001 -35s46 -59.333 46 -108l-1 -318c18 63.333 68 95 150 95c54 0 94.333 -11.667 121 -35s44.334 -58.333 53.001 -105zM701.998 128.001c5.33301 35.333 7.99805 75.666 7.99805 120.999c0 44 -2.66699 84.333 -8 121
c-6 42 -17 71.167 -33 87.5s-41.333 24.5 -76 24.5c-26 0 -47.833 -3.83301 -65.5 -11.5s-31.167 -18.834 -40.5 -33.501s-16.166 -28.667 -20.499 -42s-7.83301 -29.666 -10.5 -48.999c-3.33301 -23.333 -5 -55.666 -5 -96.999c0 -42 1.66699 -74.667 5 -98
c2.66699 -19.333 6.16699 -35.833 10.5 -49.5s11.333 -27.5 21 -41.5s23.334 -24.833 41.001 -32.5s39.167 -11.5 64.5 -11.5c34.667 0 60 8.16699 76 24.5s27 45.5 33 87.5z" />
    <glyph glyph-name="f_j" unicode="fj" horiz-adv-x="530" 
d="M450 500l0.999023 -666.999c0 -47.333 -10 -79.5 -30 -96.5s-55.667 -25.5 -107 -25.5c-20 0 -38.667 1.33301 -56 4l1 25c17.333 -2.66699 31.666 -4 42.999 -4c8 0 15.333 0.5 22 1.5s12.5 2.16699 17.5 3.5s9.5 3.83301 13.5 7.5s7.16699 6.16699 9.5 7.5
s4.5 5.16602 6.5 11.499s3.5 10.333 4.5 12s1.66699 6.66699 2 15s0.5 13.333 0.5 15v17.5v18l-1 630h-196l1 -474l-154 -1v26h80v449h-80v25h80l1 203c0.666992 112 58.334 168 173.001 168c112 0 168 -46.333 168 -139v-52h-73v46c0 16 -0.333008 28.833 -1 38.5
s-2.66699 20.5 -6 32.5s-8.33301 21.167 -15 27.5s-16.167 11.833 -28.5 16.5s-27.166 7 -44.499 7c-31.333 0 -56 -10.5 -74 -31.5s-27 -63.167 -27 -126.5v-190h269z" />
    <glyph glyph-name="f_t" unicode="ft" horiz-adv-x="668" 
d="M571 141h51.998v-42c0 -41.333 -10.333 -69.833 -31 -85.5s-49 -23.5 -85 -23.5c-30 0 -53.5 2.33301 -70.5 7s-29.833 13.667 -38.5 27s-14.167 27.833 -16.5 43.5s-3.5 38.5 -3.5 68.5v339h-196l1 -449h92v-26h-247v26h81v449h-80v25h80l1 203
c0.666992 64 16.167 108 46.5 132s71.5 36 123.5 36c52.667 0 94.334 -11.667 125.001 -35s46 -59.333 46 -108v-228h132v-25h-132v-332c0 -52 3 -85 9 -99c8.66699 -20.667 26.334 -31 53.001 -31c38.667 0 58 34.667 58 104v24zM181.998 500l196 0.000976562v226
c0 19.333 -0.833008 35.166 -2.5 47.499s-5.66699 24.833 -12 37.5s-16.333 22 -30 28s-31.5 9 -53.5 9c-31.333 0 -55.5 -10.5 -72.5 -31.5s-25.5 -63.167 -25.5 -126.5v-190z" />
    <glyph glyph-name=".notdef" horiz-adv-x="610" 
d="M55 750h500v-750h-500v750zM98 721l211 -326l210 326h-421zM294 373l-211 328v-656zM323 373l204 -317v634zM309 351l-208 -322h415z" />
    <glyph glyph-name=".null" horiz-adv-x="40" 
 />
    <glyph glyph-name=".null" horiz-adv-x="40" 
 />
    <glyph glyph-name="CR" unicode="&#xd;" horiz-adv-x="358" 
 />
    <glyph glyph-name="space" unicode=" " horiz-adv-x="310" 
 />
    <glyph glyph-name="exclam" unicode="!" horiz-adv-x="220" 
d="M153 860l-26 -672h-33l-28 672h87zM110 -20c-36.667 0 -55 18.333 -55 55s18.333 55 55 55s55 -18.333 55 -55s-18.333 -55 -55 -55z" />
    <glyph glyph-name="quotedbl" unicode="&#x22;" horiz-adv-x="361" 
d="M104 869c24.667 0 37 -12.667 37 -38c0 -49.333 -7 -121 -21 -215h-31c-14.667 98 -22 169.667 -22 215c0 25.333 12.333 38 37 38zM257 869c24.667 0 37 -12.667 37 -38c0 -49.333 -7 -121 -21 -215h-31c-14.667 98 -22 169.667 -22 215c0 25.333 12.333 38 37 38z" />
    <glyph glyph-name="numbersign" unicode="#" horiz-adv-x="766" 
d="M701 566h-127l-78 -295h131l-8 -23h-129l-66 -248h-33l65 248h-232l-65 -248h-33l65 248h-139l9 23h137l77 295h-140l9 23h137l72 271h33l-72 -271h232l72 271h34l-72 -271h131zM463 271l77 295h-232l-77 -295h232z" />
    <glyph glyph-name="dollar" unicode="$" horiz-adv-x="610" 
d="M533 214c0 -73.333 -16.998 -127.663 -50.998 -162.996s-89.667 -55.666 -167 -60.999v-85h-33v84h-14c-36.667 0 -68.334 4.66699 -95.001 14s-47.167 20.666 -61.5 33.999s-25.666 30.166 -33.999 50.499s-13.5 38.833 -15.5 55.5s-3 35.334 -3 56.001v40h65v-40
c0 -23.333 0.833008 -42.833 2.5 -58.5s5.16699 -31.834 10.5 -48.501s13.166 -30 23.499 -40s24.5 -18.333 42.5 -25s39.667 -10.334 65 -11.001h14v399l-18 10c-7.33301 4.66699 -20.833 12 -40.5 22s-35 18.167 -46 24.5s-24.5 16.166 -40.5 29.499
s-28.5 26.833 -37.5 40.5s-16.833 31.5 -23.5 53.5s-10 46 -10 72c0 70.667 19 121.5 57 152.5s91 47.5 159 49.5v76h33v-76c83.333 -3.33301 130.666 -39.333 141.999 -108l6 104h56v-223h-65c-4 66.667 -15.667 115.834 -35 147.501s-54 49.167 -104 52.5v-361
c6.66699 -4 20.334 -11.167 41.001 -21.5s37 -18.833 49 -25.5s27.167 -17.334 45.5 -32.001s32.666 -29.834 42.999 -45.501s19.5 -36 27.5 -61s12 -52.167 12 -81.5zM140.002 685.003c0 -22 2.66797 -41.6709 8.00098 -59.0039s10.666 -31.166 15.999 -41.499
s15.333 -21.166 30 -32.499s25.667 -19.166 33 -23.499s21.333 -11.833 42 -22.5c6 -3.33301 10.333 -5.66602 13 -6.99902v343c-48.667 -1.33301 -84.5 -13 -107.5 -35s-34.5 -62.667 -34.5 -122zM315.003 396.999v-378.999c50 5.33301 84.5 23.333 103.5 54
s28.5 73 28.5 127c0 29.333 -2.5 54.166 -7.5 74.499s-14.167 38 -27.5 53s-26.5 27 -39.5 36s-32.167 20.5 -57.5 34.5z" />
    <glyph glyph-name="percent" unicode="%" horiz-adv-x="853" 
d="M348 660c0 -78.667 -11.1689 -134.834 -33.502 -168.501s-60.166 -50.5 -113.499 -50.5c-52.667 0 -90.167 16.833 -112.5 50.5s-33.5 89.834 -33.5 168.501s11.167 134.667 33.5 168s59.833 50 112.5 50s90.334 -16.667 113.001 -50s34 -89.333 34 -168zM288.998 660
c-0.666992 72.667 -7.66699 124.5 -21 155.5s-35.666 46.5 -66.999 46.5s-53.833 -15.5 -67.5 -46.5s-20.5 -82.833 -20.5 -155.5s6.83301 -124.667 20.5 -156s36.167 -47 67.5 -47c32.667 0 55.667 15.667 69 47s19.666 83.333 18.999 156zM207.998 0h-22l416 860h22z
M757.998 213c0 -78.667 -11.1689 -134.834 -33.502 -168.501s-60.166 -50.5 -113.499 -50.5c-52.667 0 -90.167 16.833 -112.5 50.5s-33.5 89.834 -33.5 168.501s11.167 134.667 33.5 168s59.833 50 112.5 50s90.334 -16.667 113.001 -50s34 -89.333 34 -168zM698.996 213
c-0.666992 72.667 -7.66699 124.5 -21 155.5s-35.666 46.5 -66.999 46.5s-53.833 -15.5 -67.5 -46.5s-20.5 -82.833 -20.5 -155.5s6.83301 -124.667 20.5 -156s36.167 -47 67.5 -47c32.667 0 55.667 15.667 69 47s19.666 83.333 18.999 156z" />
    <glyph glyph-name="ampersand" unicode="&#x26;" horiz-adv-x="810" 
d="M775 0l-69 -45c-34.667 22.667 -81 62.334 -139 119.001c-44 -55.333 -115.667 -83 -215 -83c-94.667 0 -162.834 22 -204.501 66s-62.5 99.667 -62.5 167c0 33.333 5.16699 63.333 15.5 90s25.333 49.334 45 68.001s38.5 33.667 56.5 45s39.667 23 65 35
c-41.333 77.333 -62 145.666 -62 204.999c0 56.667 14.5 100.167 43.5 130.5s71.167 45.5 126.5 45.5c50.667 0 89.667 -12.667 117 -38s41 -58.333 41 -99c0 -50 -15.167 -92.5 -45.5 -127.5s-78.5 -71.5 -144.5 -109.5c15.333 -28 47 -74 95 -138
c46.667 -62 96 -119 148 -171c20 49.333 30 112.666 30 189.999l-1 30h-69v25h164v-25h-73l-1 -50c-2 -78.667 -12.333 -141.667 -31 -189c56.667 -55.333 113.334 -102.333 170.001 -141zM383 821c-66 -3.33301 -99 -48.3311 -99 -134.998
c0 -66.667 15.667 -131.334 47 -194.001c54 26 91.833 57.167 113.5 93.5s32.5 79.166 32.5 128.499c0 34.667 -7.66699 61.5 -23 80.5s-39 27.833 -71 26.5zM375 18.002c76 0 133.667 25 173 75c-72.667 74.667 -134 148.334 -184 221.001
c-40.667 57.333 -68 97.666 -82 120.999c-36.667 -22 -65.334 -47.667 -86.001 -77s-31 -68.333 -31 -117c0 -74 19.833 -129.667 59.5 -167s89.834 -56 150.501 -56z" />
    <glyph glyph-name="quotesingle" unicode="'" horiz-adv-x="244" 
d="M122 869c24.667 0 37 -12.667 37 -38c0 -49.333 -7 -121 -21 -215h-31c-14.667 98 -22 169.667 -22 215c0 25.333 12.333 38 37 38z" />
    <glyph glyph-name="parenleft" unicode="(" horiz-adv-x="386" 
d="M326 -119l-10.999 -12c-78 60 -135.833 136 -173.5 228s-56.5 186.333 -56.5 283s18.833 191 56.5 283s95.5 168.333 173.5 229l11 -12c-52.667 -52.667 -93 -122.5 -121 -209.5s-41.667 -183.833 -41 -290.5c-0.666992 -106.667 13.166 -203.5 41.499 -290.5
s68.5 -156.5 120.5 -208.5z" />
    <glyph glyph-name="parenright" unicode=")" horiz-adv-x="371" 
d="M207 380c0.666992 106.667 -12.999 203.5 -40.999 290.5s-68.333 156.833 -121 209.5l11 12c78 -60.667 135.833 -137 173.5 -229s56.5 -186.333 56.5 -283s-18.833 -191 -56.5 -283s-95.5 -168 -173.5 -228l-11 12c52 52 92.167 121.5 120.5 208.5
s42.166 183.833 41.499 290.5z" />
    <glyph glyph-name="asterisk" unicode="*" horiz-adv-x="610" 
d="M540 497c12.667 -6.66699 20.3252 -15.667 22.9922 -27s1.33398 -20 -3.99902 -26c-12.667 -21.333 -31.334 -25 -56.001 -11c-9.33301 5.33301 -19.833 12.166 -31.5 20.499s-22.667 16.666 -33 24.999l-52.5 42.5l-67 54c20 -130.667 30 -207.667 30 -231
c0 -14 -3.66699 -24.667 -11 -32s-16 -11 -26 -11s-18.667 3.66699 -26 11s-11 18 -11 32c0 23.333 11 101 33 233l-68.5 -54.5l-53 -43c-10.333 -8.33301 -21.5 -16.833 -33.5 -25.5s-22.667 -15.667 -32 -21c-14 -6.66699 -25.5 -8.66699 -34.5 -6
s-15.833 8.33398 -20.5 17.001c-5.33301 6.66699 -6.83301 15.5 -4.5 26.5s9.83301 19.833 22.5 26.5c5.33301 3.33301 10.833 6.5 16.5 9.5s12.834 6.33301 21.501 10l22.5 9.5c6.33301 2.66699 16.166 6.5 29.499 11.5l34 12.5l44 16l51 19l-82.5 32
c-30.333 11.333 -51.666 19.5 -63.999 24.5s-25.166 10.5 -38.499 16.5s-24.666 11.667 -33.999 17c-24.667 14.667 -30.667 32.667 -18 54c4.66699 8 11.5 13.333 20.5 16s20.5 0.666992 34.5 -6c24 -14 86.667 -63 188 -147c-22.667 132 -34 210.667 -34 236
c0 14.667 3.66699 25.5 11 32.5s16 10.5 26 10.5s18.667 -3.5 26 -10.5s11 -17.833 11 -32.5c0 -19.333 -10.333 -97.333 -31 -234l41.5 34.5l36 30l28 22.5l25 20l19 14.5c7.66699 5.66699 14.167 10.167 19.5 13.5l16 10c24 14 42.667 10.667 56 -10
c12 -22 5.66699 -40 -19 -54c-9.33301 -5.33301 -20.666 -11 -33.999 -17s-26.166 -11.5 -38.499 -16.5s-33.666 -13.167 -63.999 -24.5l-82.5 -32l40.5 -15l36.5 -13.5l30 -11c12 -4.33301 20.833 -7.66602 26.5 -9.99902l21.5 -8.5c8.66699 -3.33301 15.334 -6 20.001 -8
s9.83398 -4.33301 15.501 -7s10.667 -5.16699 15 -7.5z" />
    <glyph glyph-name="plus" unicode="+" horiz-adv-x="632" 
d="M577 389v-21h-248v-250h-25v250h-248v21h248v250h25v-250h248z" />
    <glyph glyph-name="comma" unicode="," horiz-adv-x="238" 
d="M155 4c-3.33301 -12 -8.33203 -20.332 -14.999 -24.999s-17.334 -7 -32.001 -7c-35.333 0 -53 16.667 -53 50c0 39.333 20.333 59 61 59c44.667 0 67 -27 67 -81c0 -76.667 -40.667 -120.334 -122 -131.001l-5 17c42.667 2 71 14.5 85 37.5s18.667 49.833 14 80.5z" />
    <glyph glyph-name="hyphen" unicode="-" horiz-adv-x="569" 
d="M514 358v-40h-459v40h459z" />
    <glyph glyph-name="period" unicode="." horiz-adv-x="220" 
d="M110 -20c-36.667 0 -55 18.333 -55 55s18.333 55 55 55s55 -18.333 55 -55s-18.333 -55 -55 -55z" />
    <glyph glyph-name="slash" unicode="/" horiz-adv-x="346" 
d="M74 -97h-29l253 1032h28z" />
    <glyph glyph-name="zero" unicode="0" horiz-adv-x="614" 
d="M514 703c14 -84.667 21 -175.334 21 -272.001s-7 -187.334 -21 -272.001c-6 -30.667 -15 -57 -27 -79s-24.833 -38.833 -38.5 -50.5s-29.5 -21 -47.5 -28s-34 -11.333 -48 -13s-29.333 -2.5 -46 -2.5s-32 0.833008 -46 2.5s-30 6 -48 13s-33.833 16.333 -47.5 28
s-26.5 28.5 -38.5 50.5s-21 48.333 -27 79c-14 84.667 -21 175.334 -21 272.001s7 187.334 21 272.001c6 30.667 15 57 27 79s24.833 38.833 38.5 50.5s29.5 21 47.5 28s34 11.333 48 13s29.333 2.5 46 2.5s32 -0.833008 46 -2.5s30 -6 48 -13s33.833 -16.333 47.5 -28
s26.5 -28.5 38.5 -50.5s21 -48.333 27 -79zM440 171c9.33301 52.667 14 139.334 14 260.001s-4.66699 207.334 -14 260.001c-9.33301 60.667 -23.833 102.167 -43.5 124.5s-49.5 33.5 -89.5 33.5s-69.833 -11.167 -89.5 -33.5s-34.167 -63.833 -43.5 -124.5
c-9.33301 -52.667 -14 -139.334 -14 -260.001s4.66699 -207.334 14 -260.001c9.33301 -60.667 23.833 -102.167 43.5 -124.5s49.5 -33.5 89.5 -33.5s69.833 11.167 89.5 33.5s34.167 63.833 43.5 124.5z" />
    <glyph glyph-name="one" unicode="1" horiz-adv-x="399" 
d="M348 25v-25h-297v25h116v817l-106 -21l-2 25l135 32h56v-853h98z" />
    <glyph glyph-name="two" unicode="2" horiz-adv-x="594" 
d="M378 378l-66.498 -43.002l-56 -37l-40.5 -28.5c-17.333 -12.333 -28.5 -21.666 -33.5 -27.999l-20.5 -26c-8.66699 -11 -14 -21.667 -16 -32s-4 -22.166 -6 -35.499s-3 -28.666 -3 -45.999v-28h359v-74l-410 1v98c0 26.667 3.66699 51.5 11 74.5
s15.666 41.833 24.999 56.5s22.833 29.5 40.5 44.5s32.5 26.167 44.5 33.5l50.5 29.5c21.667 12.333 37.167 21.5 46.5 27.5c46 29.333 77.333 65.5 94 108.5s25 98.167 25 165.5c0 71.333 -8.66699 124.166 -26 158.499s-50.333 51.5 -99 51.5
c-44.667 0 -75.667 -15 -93 -45s-27 -76.333 -29 -139l-1 -30l-82 -1v20c0 78 19.5 134.667 58.5 170s89.5 53 151.5 53c76 0 129.5 -19.167 160.5 -57.5s46.5 -96.5 46.5 -174.5c0 -40 -3.33301 -75 -10 -105s-16.834 -55.167 -30.501 -75.5s-27.167 -36.5 -40.5 -48.5
s-30 -24.667 -50 -38z" />
    <glyph glyph-name="three" unicode="3" horiz-adv-x="593" 
d="M498 657c0 -60.667 -10.332 -107.508 -30.999 -140.508s-55.334 -53.167 -104.001 -60.5c54.667 -9.33301 92.5 -33.166 113.5 -71.499s31.5 -89.166 31.5 -152.499c0 -48.667 -2.83301 -87.834 -8.5 -117.501s-16.834 -54.667 -33.501 -75s-39.167 -34.5 -67.5 -42.5
s-65.5 -12 -111.5 -12c-21.333 0 -39.833 0.833008 -55.5 2.5s-33.5 5.83398 -53.5 12.501s-36.167 15.834 -48.5 27.501s-22.833 28.834 -31.5 51.501s-13 49.667 -13 81v89h74v-77c0 -60.667 11 -102.5 33 -125.5s53.667 -34.5 95 -34.5c22 0 41.167 2.16699 57.5 6.5
s29.5 11.833 39.5 22.5s17.833 21.334 23.5 32.001s9.83398 26.334 12.501 47.001s4.33398 38.667 5.00098 54s1 37.333 1 66c0 16 -0.166992 29.167 -0.5 39.5s-1.5 24.833 -3.5 43.5s-5.66699 34.167 -11 46.5s-12 24.833 -20 37.5s-18.833 22.334 -32.5 29.001
s-29.834 10 -48.501 10h-79v25h79c41.333 0 69.666 13.333 84.999 40s23 68 23 124c0 28.667 -0.666992 52.334 -2 71.001s-4.16602 38 -8.49902 58s-10.833 35.667 -19.5 47s-20.334 20.666 -35.001 27.999s-32.667 11 -54 11c-84.667 0 -127 -54.333 -127 -163v-53h-74v64
c0 36 6.33301 66.667 19 92s29.834 43.833 51.501 55.5s43 19.834 64 24.501s43.833 7 68.5 7c71.333 0 122 -18.5 152 -55.5s45 -91.833 45 -164.5z" />
    <glyph glyph-name="four" unicode="4" horiz-adv-x="575" 
d="M524 222h-100v-197h98v-25h-283v25h103v197h-280l1 25l310 613h52l-1 -613h100v-25zM341 247v473l-242 -473h242z" />
    <glyph glyph-name="five" unicode="5" horiz-adv-x="575" 
d="M135 787l-1.00195 -318.003c18.667 67.333 67.334 101 146.001 101c40.667 0 74.334 -4.5 101.001 -13.5s47.334 -19.5 62.001 -31.5s25.5 -32.833 32.5 -62.5s11.167 -56.5 12.5 -80.5s2 -61 2 -111c0 -52 -2.16699 -93.5 -6.5 -124.5s-13.333 -59.667 -27 -86
s-34.334 -45.166 -62.001 -56.499s-63.5 -17 -107.5 -17c-22 0 -40.667 0.666992 -56 2s-33 5.33301 -53 12s-36.167 15.834 -48.5 27.501s-22.833 28.834 -31.5 51.501s-13 49.667 -13 81v69h74v-57c0 -60.667 10.833 -102.334 32.5 -125.001s53.5 -34 95.5 -34
c23.333 0 43 4.16699 59 12.5s28.5 18.833 37.5 31.5s15.833 31 20.5 55s7.66699 47.167 9 69.5s2 51.833 2 88.5c0 28.667 -0.166992 49.667 -0.5 63s-1 31 -2 53s-2.66699 38 -5 48s-5.5 22.333 -9.5 37s-9.33301 25.334 -16 32.001s-14.667 13.5 -24 20.5
s-20.5 11.833 -33.5 14.5s-27.833 4 -44.5 4c-84.667 0 -129 -40.667 -133 -122h-46l1 439h347v-73h-314z" />
    <glyph glyph-name="six" unicode="6" horiz-adv-x="568" 
d="M310 849c-61.333 0 -101.67 -30.6709 -121.003 -92.0039c-12 -38 -19.333 -112.667 -22 -224c-0.666992 -17.333 -1 -28.333 -1 -33c19.333 46.667 62.666 70 129.999 70c25.333 0 47.833 -1.33301 67.5 -4s36.667 -7.66699 51 -15s26.5 -14.666 36.5 -21.999
s18.333 -18.666 25 -33.999s11.834 -28.833 15.501 -40.5s6.33398 -29.167 8.00098 -52.5s2.66699 -43.166 3 -59.499s0.5 -40.166 0.5 -71.499c0 -39.333 -1.16699 -72 -3.5 -98s-7.5 -51.833 -15.5 -77.5s-19.5 -45.667 -34.5 -60s-35.167 -26 -60.5 -35
s-56.333 -13.5 -93 -13.5c-38 0 -69.833 3.83301 -95.5 11.5s-46.167 18.167 -61.5 31.5s-27 32.666 -35 57.999s-13.167 51.333 -15.5 78s-3.5 61.667 -3.5 105c0 70.667 1 140 3 208c2.66699 116 8.33398 194.333 17.001 235c16.667 79.333 55.334 129.333 116.001 150
c24.667 8 53.667 12 87 12c62.667 0 109.5 -15.167 140.5 -45.5s46.5 -79.5 46.5 -147.5l-72 1c0 58 -8.83301 99.833 -26.5 125.5s-46.5 38.834 -86.5 39.501zM295.996 542.996c-15.333 0 -29.165 -1.5 -41.498 -4.5s-23 -6.33301 -32 -10s-17 -10.167 -24 -19.5
s-12.667 -17.166 -17 -23.499s-8 -17.333 -11 -33s-5.33301 -27.5 -7 -35.5s-2.83398 -22.833 -3.50098 -44.5s-1 -37.334 -1 -47.001v-54.5c0 -37.333 0.333008 -66 1 -86s2.33398 -41.5 5.00098 -64.5s6.83398 -39.833 12.501 -50.5s13.667 -21 24 -31
s23.166 -16.667 38.499 -20s34 -5 56 -5c24.667 0 45.167 3.83301 61.5 11.5s29.166 17.5 38.499 29.5s16.333 30 21 54s7.66699 47.333 9 70s2 53.334 2 92.001v50c0 10 -0.333008 24.667 -1 44s-1.5 33.166 -2.5 41.499s-2.5 19.833 -4.5 34.5s-4.66699 25 -8 31
s-7.33301 14 -12 24s-10.334 17 -17.001 21l-22.5 13.5c-8.33301 5 -17.833 8.33301 -28.5 10s-22.667 2.5 -36 2.5z" />
    <glyph glyph-name="seven" unicode="7" horiz-adv-x="477" 
d="M228 15l-83.002 -0.00292969c2.66699 78.667 7.83398 147.5 15.501 206.5s16.834 111.333 27.501 157s27.334 92.334 50.001 140.001s45.834 90.834 69.501 129.501s56.5 89.334 98.5 152.001h-381v70h415l2 -67c-39.333 -60.667 -72.333 -118.667 -99 -174
s-47.334 -104.833 -62.001 -148.5s-25.834 -93.667 -33.501 -150s-12.667 -105 -15 -146s-3.83301 -97.5 -4.5 -169.5z" />
    <glyph glyph-name="eight" unicode="8" horiz-adv-x="626" 
d="M397 455c54 -16.667 91.501 -40.667 112.501 -72s31.5 -85.666 31.5 -162.999c0 -50.667 -4 -91.334 -12 -122.001s-22 -54.334 -42 -71.001s-42.833 -27.667 -68.5 -33s-60.167 -8 -103.5 -8c-44.667 0 -80.334 2.83301 -107.001 8.5s-50 16.834 -70 33.501
s-33.833 40.167 -41.5 70.5s-11.5 70.5 -11.5 120.5c0 77.333 10.5 131.833 31.5 163.5s58.5 55.834 112.5 72.501c-48.667 8 -83.167 28.833 -103.5 62.5s-30.5 80.5 -30.5 140.5c0 73.333 16 128.166 48 164.499s88.667 54.5 170 54.5c80.667 0 137.167 -18 169.5 -54
s48.5 -91 48.5 -165c0 -60.667 -10.167 -107.667 -30.5 -141s-54.833 -54 -103.5 -62zM176.001 640c0 -27.333 1.33301 -49.8301 4 -67.4971s8.5 -35 17.5 -52s23 -29.5 42 -37.5s43.5 -12 73.5 -12s54.5 4 73.5 12s32.833 20.333 41.5 37s14.5 33.5 17.5 50.5
s4.5 38.5 4.5 64.5v27.5v30c0 5 -0.333008 14.333 -1 28s-1.83398 23.5 -3.50098 29.5l-7.5 26c-3.33301 11.333 -7.16602 19.666 -11.499 24.999s-10 11.833 -17 19.5s-15 13.167 -24 16.5s-19.667 6.33301 -32 9s-25.833 4 -40.5 4c-19.333 0 -36.5 -2 -51.5 -6
s-27.167 -9.66699 -36.5 -17s-17.5 -15.833 -24.5 -25.5s-12 -20.334 -15 -32.001s-5.5 -23.667 -7.5 -36s-2.83301 -24.833 -2.5 -37.5s0.5 -25.334 0.5 -38.001v-18zM313.001 13.0029c23.333 0 43.499 2 60.499 6s30.833 11 41.5 21s19.167 20 25.5 30
s10.833 24.333 13.5 43s4.33398 35 5.00098 49s1 33.667 1 59c0 28 -0.5 50.167 -1.5 66.5s-4 35.666 -9 57.999s-12.5 39.666 -22.5 51.999s-24.5 23 -43.5 32s-42.5 13.5 -70.5 13.5c-27.333 0 -50.5 -4.33301 -69.5 -13s-33.5 -19 -43.5 -31s-17.667 -29.167 -23 -51.5
s-8.5 -42.166 -9.5 -59.499s-1.5 -40.666 -1.5 -69.999s0.666992 -52.5 2 -69.5s4.5 -35.333 9.5 -55s12.667 -34.5 23 -44.5s24.833 -18.5 43.5 -25.5s41.667 -10.5 69 -10.5z" />
    <glyph glyph-name="nine" unicode="9" horiz-adv-x="614" 
d="M88 231l68.999 0.99707l-2 -56c0 -59.333 13.833 -101.5 41.5 -126.5s62.5 -37.5 104.5 -37.5c20 0 37.667 3.66699 53 11s28.166 16.666 38.499 27.999s19.166 27.333 26.499 48s12.833 40.167 16.5 58.5s6.5 43 8.5 74s3.16699 57.5 3.5 79.5s0.5 51.667 0.5 89
c-17.333 -35.333 -38.666 -59 -63.999 -71s-58 -18 -98 -18c-46 0 -83.333 5.5 -112 16.5s-50.167 29.333 -64.5 55s-23.666 54 -27.999 85s-6.5 72.167 -6.5 123.5c0 98.667 15.167 170.834 45.5 216.501s85.5 68.5 165.5 68.5c42.667 0 78.5 -5.66699 107.5 -17
s52.5 -27.166 70.5 -47.499s31.667 -49.666 41 -87.999s15.666 -79.5 18.999 -123.5s5 -100.333 5 -169c0 -37.333 -0.333008 -68.333 -1 -93s-2 -52.5 -4 -83.5s-5.16699 -56.667 -9.5 -77s-10.166 -41.666 -17.499 -63.999s-16.666 -40.5 -27.999 -54.5
s-24.833 -27 -40.5 -39s-34.167 -20.667 -55.5 -26s-45.333 -8 -72 -8c-18 0 -34 0.5 -48 1.5s-32.167 4.83301 -54.5 11.5s-40.833 16 -55.5 28s-27.667 30.167 -39 54.5s-17 53.5 -17 87.5zM148.999 590.997c0 -36 0.668945 -65.168 2.00195 -87.501
s4.66602 -45.166 9.99902 -68.499s13 -41.333 23 -54s23.833 -23 41.5 -31s39.167 -12 64.5 -12c59.333 0 99.833 19.667 121.5 59s32.5 104 32.5 194c0 92 -9.83301 158 -29.5 198s-61.167 60 -124.5 60c-54.667 0 -91.834 -21.5 -111.501 -64.5s-29.5 -107.5 -29.5 -193.5
z" />
    <glyph glyph-name="colon" unicode=":" horiz-adv-x="220" 
d="M110 406c-36.667 0 -55 18.333 -55 55s18.333 55 55 55s55 -18.333 55 -55s-18.333 -55 -55 -55zM110 -19c-36.667 0 -55 18.333 -55 55s18.333 55 55 55s55 -18.333 55 -55s-18.333 -55 -55 -55z" />
    <glyph glyph-name="semicolon" unicode=";" horiz-adv-x="238" 
d="M110 403c-36.667 0 -55 18.333 -55 55s18.333 55 55 55s55 -18.333 55 -55s-18.333 -55 -55 -55zM155 13c-3.33301 -12 -8.33203 -20.332 -14.999 -24.999s-17.334 -7 -32.001 -7c-35.333 0 -53 16.667 -53 50c0 39.333 20.333 59 61 59c44.667 0 67 -27 67 -81
c0 -76.667 -40.667 -120.334 -122 -131.001l-3 14c76 12.667 108.333 53 97 121z" />
    <glyph glyph-name="less" unicode="&#x3c;" 
d="M563 589l-456 -222l456 -222l-10 -26l-488 248l488 248z" />
    <glyph glyph-name="equal" unicode="=" horiz-adv-x="586" 
d="M531 490v-21h-476v21h476zM531 295v-21h-476v21h476z" />
    <glyph glyph-name="greater" unicode="&#x3e;" 
d="M95 615l488 -248l-488 -248l-10 26l456 222l-456 222z" />
    <glyph glyph-name="question" unicode="?" horiz-adv-x="421" 
d="M208 870c30 0 55.3311 -1.49805 75.998 -4.49805s38 -8.83301 52 -17.5s25 -17.834 33 -27.501s14 -24.167 18 -43.5s6.5 -38.166 7.5 -56.499s1.5 -43.5 1.5 -75.5c0 -34.667 -4.5 -63.167 -13.5 -85.5s-20 -37.833 -33 -46.5l-43 -28
c-15.667 -10 -30 -19.833 -43 -29.5s-24 -26.334 -33 -50.001s-13.5 -53.834 -13.5 -90.501v-113h-47v113c0 36 5.33301 65.667 16 89s23.5 41 38.5 53l45 37c15 12.667 27.833 31.334 38.5 56.001s16 56.334 16 95.001v10c0 24.667 -0.166992 42.667 -0.5 54
s-1.16602 25.666 -2.49902 42.999s-3.5 29.666 -6.5 36.999s-7.16699 16 -12.5 26s-12.166 16.833 -20.499 20.5s-18.5 7 -30.5 10s-26.333 4.5 -43 4.5c-40 0 -67.333 -9.33301 -82 -28s-23.667 -50 -27 -94l-1 -112h-73l1 109c4 58.667 20.833 97.5 50.5 116.5
s73.5 28.5 131.5 28.5zM194.998 -8.99805c-36.667 0 -55 18.333 -55 55s18.333 55 55 55s55 -18.333 55 -55s-18.333 -55 -55 -55z" />
    <glyph glyph-name="at" unicode="@" horiz-adv-x="1063" 
d="M692 -13c-37.333 0 -63.5088 8.00195 -78.5088 24.002s-19.833 35.333 -14.5 58l7 30c-24.667 -41.333 -47.667 -69.5 -69 -84.5s-50.333 -22.5 -87 -22.5c-56.667 0 -98.5 15.167 -125.5 45.5s-40.5 77.833 -40.5 142.5c0 95.333 25.833 173.166 77.5 233.499
s115.834 90.5 192.501 90.5s117.334 -36.667 122.001 -110l25 104h71l-91 -415c-6 -26.667 -6.16699 -44.667 -0.5 -54s17.834 -14 36.501 -14c57.333 0 107 32.667 149 98s63 141.333 63 228c0 42 -6.16699 80.667 -18.5 116s-31.5 67.833 -57.5 97.5
s-61.333 53.167 -106 70.5s-97 26.333 -157 27c-136.667 2 -245.834 -36.833 -327.501 -116.5s-122.5 -190.167 -122.5 -331.5c0 -240.667 124.333 -361 373 -361c137.333 0 256.333 28 357 84l9 -23c-98 -56 -219 -84 -363 -84c-39.333 0 -76.166 2.33301 -110.499 7
s-71.166 14.667 -110.499 30s-73.166 35.5 -101.499 60.5s-52.666 59.667 -72.999 104s-32.166 96.166 -35.499 155.499c-5.33301 100 13.834 188.5 57.501 265.5s104.334 135.5 182.001 175.5s165.167 59 262.5 57c65.333 -0.666992 123.666 -11.167 174.999 -31.5
s92.333 -47.333 123 -81s53.834 -71 69.501 -112s23.5 -84.167 23.5 -129.5c0 -93.333 -28.833 -172.333 -86.5 -237s-124.167 -97 -199.5 -97zM464.991 15.002c36 0 65.1689 13.502 87.502 40.502s42.166 65.5 59.499 115.5c6 17.333 17 62.333 33 135
c3.33301 16 5.5 32 6.5 48s0.166992 34.5 -2.5 55.5s-11.334 38 -26.001 51s-35 19.5 -61 19.5c-40 0 -75 -15.833 -105 -47.5s-52.167 -70.834 -66.5 -117.501s-21.5 -96.334 -21.5 -149.001c0 -100.667 32 -151 96 -151z" />
    <glyph glyph-name="A" unicode="A" horiz-adv-x="635" 
d="M567 25h63v-25h-255v25h105l-61 267h-247l-67 -267h90v-25h-190v25h62l209 838h91zM180 322h232l-110 479h-3z" />
    <glyph glyph-name="B" unicode="B" horiz-adv-x="636" 
d="M51 860l286.999 0.00195312c32 0 59.833 -1.83301 83.5 -5.5s43.334 -9.83398 59.001 -18.501s28.167 -18.167 37.5 -28.5s16.5 -24.166 21.5 -41.499s8.33301 -34.5 10 -51.5s2.5 -38.5 2.5 -64.5c0 -23.333 -1.66699 -44.333 -5 -63s-9.5 -36.834 -18.5 -54.501
s-22.5 -32.334 -40.5 -44.001s-40.333 -19.167 -67 -22.5c59.333 -8 98.166 -26.667 116.499 -56s27.5 -82.666 27.5 -159.999c0 -36.667 -1 -65.834 -3 -87.501s-6.83301 -44.167 -14.5 -67.5s-19.167 -41 -34.5 -53s-36.666 -22 -63.999 -30s-61 -12 -101 -12h-297v25h78
v810h-78v25zM211.999 472.002l113.003 0.00292969c56 0 93.5 13.5 112.5 40.5s28.5 72.833 28.5 137.5c0 20.667 -0.166992 36 -0.5 46s-1.33301 23 -3 39s-4.33398 27.667 -8.00098 35s-9 16.166 -16 26.499s-15.833 17.666 -26.5 21.999s-23.834 8.16602 -39.501 11.499
s-33.834 5 -54.501 5h-106v-363zM212.002 25.0049l125.999 -0.00292969c32 0 57.333 3.83301 76 11.5s32.667 21.667 42 42s15.333 42.833 18 67.5s4 59.334 4 104.001c0 39.333 -1.5 69.833 -4.5 91.5s-9.66699 41.334 -20 59.001s-25.666 29.834 -45.999 36.501
s-47.833 10 -82.5 10h-113v-422z" />
    <glyph glyph-name="C" unicode="C" horiz-adv-x="617" 
d="M565 240l-0.00585938 -40.002c0 -20 -1.5 -38.667 -4.5 -56s-9 -35.833 -18 -55.5s-21 -36.5 -36 -50.5s-35.833 -25.5 -62.5 -34.5s-57.667 -13.5 -93 -13.5c-27.333 0 -48.666 0.666992 -63.999 2s-33.5 5 -54.5 11s-38 14.833 -51 26.5s-26 28.667 -39 51
s-23.833 49.833 -32.5 82.5c-16.667 64.667 -25 149.667 -25 255c0 110 8 200.667 24 272c15.333 68 39.833 114.833 73.5 140.5s84.834 38.5 153.501 38.5c87.333 0 140 -30.667 158 -92l6 88h56v-223h-65c-2 74 -14 125.333 -36 154s-62 43 -120 43
c-49.333 0 -84 -10.667 -104 -32s-34.667 -62.666 -44 -123.999c-10 -71.333 -15 -167 -15 -287c0 -104.667 5 -183 15 -235c6.66699 -32.667 14.167 -58.5 22.5 -77.5s19.833 -33.167 34.5 -42.5s29.334 -15.166 44.001 -17.499s35.667 -3.5 63 -3.5
c24.667 0 45.334 2.5 62.001 7.5s29.834 11.5 39.501 19.5s16.834 20.333 21.501 37s7.66699 33.167 9 49.5s2 38.5 2 66.5v40h80z" />
    <glyph glyph-name="D" unicode="D" horiz-adv-x="698" 
d="M51 860h310.003c71.333 0 123.666 -10.833 156.999 -32.5s57.333 -65.5 72 -131.5c15.333 -69.333 23 -159.333 23 -270c0 -111.333 -8 -199 -24 -263c-6 -23.333 -13.167 -43.666 -21.5 -60.999s-16.333 -31.833 -24 -43.5s-17.834 -21.334 -30.501 -29.001
s-23.334 -13.5 -32.001 -17.5s-21.5 -6.83301 -38.5 -8.5s-29.667 -2.66699 -38 -3s-22.5 -0.5 -42.5 -0.5h-311v25h78v810h-78v25zM212.003 25l107.004 0.000976562c22.667 0 40.167 0.333008 52.5 1s27.666 3.5 45.999 8.5s32.666 12 42.999 21s20.333 22.667 30 41
s16.167 40.5 19.5 66.5c10.667 74.667 16 169.667 16 285c0 106.667 -5.33301 189.667 -16 249c-4.66699 25.333 -12.334 47.166 -23.001 65.499s-21.834 32 -33.501 41s-26.5 16 -44.5 21s-33 8 -45 9s-27 1.5 -45 1.5h-107v-810z" />
    <glyph glyph-name="E" unicode="E" 
d="M421 433h-209v-408h280v174h65v-199h-506v25h78v810h-78v25h502v-196h-65v171h-276v-372h209v92h43v-224h-43v102z" />
    <glyph glyph-name="F" unicode="F" horiz-adv-x="579" 
d="M51 25h78v810h-78v25h498l1 -197h-65v172h-273v-379h210v99h43v-224h-43v100h-210v-406h120v-25h-281v25z" />
    <glyph glyph-name="G" unicode="G" horiz-adv-x="679" 
d="M393 391l236 -0.00488281v-25h-62v-366h-58l-3 131c-16 -94 -75 -141 -177 -141c-21.333 0 -38.666 0.666992 -51.999 2s-29.333 5.16602 -48 11.499s-34.334 15.333 -47.001 27s-25.5 28.834 -38.5 51.501s-23.833 50 -32.5 82c-17.333 64.667 -26 152.334 -26 263.001
c0 112 8.33301 202.333 25 271c16.667 66.667 41.667 111.834 75 135.501s84.666 35.5 153.999 35.5c90 0 145 -30 165 -90l5 86h56v-223h-66l-3 44c-3.33301 54.667 -17 93.834 -41 117.501s-62.667 35.5 -116 35.5c-48.667 0 -83.167 -9 -103.5 -27
s-35.166 -57.667 -44.499 -119c-12 -77.333 -18 -166.666 -18 -267.999c0 -112.667 6 -199.667 18 -261c10.667 -53.333 25.667 -90.666 45 -111.999s50 -32 92 -32c106.667 0 160 55.667 160 167v179h-95v25z" />
    <glyph glyph-name="H" unicode="H" horiz-adv-x="741" 
d="M690 835h-78v-810h78v-25h-239v25h78v401h-317v-401h78v-25h-239v25h78v810h-78v25h239v-25h-78v-375h317v375h-78v25h239v-25z" />
    <glyph glyph-name="I" unicode="I" horiz-adv-x="341" 
d="M290 0h-239v25h78v810h-78v25h239v-25h-78v-810h78v-25z" />
    <glyph glyph-name="J" unicode="J" horiz-adv-x="486" 
d="M173 860l291.999 0.00195312v-25h-79v-692c0 -52.667 -17.5 -91.167 -52.5 -115.5s-79.5 -36.5 -133.5 -36.5c-20 0 -39 1.5 -57 4.5s-37 8.5 -57 16.5s-35.833 20.667 -47.5 38s-17.5 38.666 -17.5 63.999l-1 54l71 1l1 -59c0.666992 -59.333 36.334 -89 107.001 -89
c11.333 0 22 1.16699 32 3.5s21 6.66602 33 12.999s21.5 17 28.5 32s10.5 33.5 10.5 55.5v710h-130v25z" />
    <glyph glyph-name="K" unicode="K" horiz-adv-x="678" 
d="M638 25l34.9971 0.000976562v-25h-61h-19c-19.333 0 -33.166 0.166992 -41.499 0.5s-18.333 1.83301 -30 4.5s-19.5 6.66699 -23.5 12s-8.83301 13.5 -14.5 24.5s-9.5 24.333 -11.5 40s-4 35.5 -6 59.5l-12 170c-3.33301 42 -17.166 72.833 -41.499 92.5
s-65.166 29.5 -122.499 29.5h-78v-408h108v-25h-269v25h78v810h-78v25h255v-25h-94v-372h76c30.667 0 55.167 3.5 73.5 10.5s33.166 21 44.499 42s19.333 43.667 24 68s10 61.166 16 110.499l16 141h-68v25h230v-25h-86l-19 -149c-10 -86.667 -24.833 -146 -44.5 -178
s-53.5 -51.667 -101.5 -59c104.667 -8 160.667 -60.667 168 -158l13 -154c4 -45.333 10.833 -75.333 20.5 -90s30.834 -22 63.501 -22z" />
    <glyph glyph-name="L" unicode="L" horiz-adv-x="563" 
d="M547 0h-496v25h78v810h-78v25h239v-25h-78v-810h271v177l65 -1z" />
    <glyph glyph-name="M" unicode="M" horiz-adv-x="902" 
d="M773 25h78v-25h-239v25h78v801h-4l-220 -826h-79l-214 826h-6v-801h88v-25h-204v25h78v810h-78v25h196l200 -776h3l205 776h196v-25h-78v-810z" />
    <glyph glyph-name="N" unicode="N" horiz-adv-x="698" 
d="M585 835v-835l-85 -1l-345 825h-4v-799h78v-25h-194v25h78v810h-78v25h192l318 -767h2v742h-78v25h194v-25h-78z" />
    <glyph glyph-name="O" unicode="O" horiz-adv-x="692" 
d="M346 -11c-70 0 -123.002 12.333 -159.002 37s-62 70 -78 136c-18 72.667 -26.333 162 -25 268c-1.33301 105.333 7 194.333 25 267c16.667 66 42.834 111.333 78.501 136s88.5 37 158.5 37s122.833 -12.333 158.5 -37s61.834 -70 78.501 -136c16 -76 24 -165 24 -267
c0 -112.667 -8 -202 -24 -268s-42 -111.333 -78 -136s-89 -37 -159 -37zM345.998 16c49.333 0 85.5 9.83301 108.5 29.5s39.167 60.5 48.5 122.5c10 63.333 15 150.666 15 261.999c0 110.667 -5 197.667 -15 261c-9.33301 62 -25.5 102.833 -48.5 122.5
s-59.167 29.5 -108.5 29.5s-85.5 -9.83301 -108.5 -29.5s-39.167 -60.5 -48.5 -122.5c-10 -63.333 -15 -150.333 -15 -261c0 -111.333 5 -198.666 15 -261.999c9.33301 -62 25.5 -102.833 48.5 -122.5s59.167 -29.5 108.5 -29.5z" />
    <glyph glyph-name="P" unicode="P" horiz-adv-x="634" 
d="M51 860h243.999c78.667 0 124.334 -0.666992 137.001 -2c50 -6.66699 84.333 -28.667 103 -66c16 -33.333 24 -84 24 -152c0 -38.667 -0.666992 -69 -2 -91s-4.33301 -44.333 -9 -67s-11.5 -39.5 -20.5 -50.5s-21.833 -21.167 -38.5 -30.5s-36.667 -15.5 -60 -18.5
s-52.333 -4.5 -87 -4.5h-130v-353h120v-25h-281v25h78v810h-78v25zM211.999 403l120 -0.000976562c32.667 0 58 3 76 9s32 19 42 39s16.167 43.333 18.5 70s3.5 66.334 3.5 119.001c0 84 -9 137.5 -27 160.5s-60 34.5 -126 34.5h-108z" />
    <glyph glyph-name="Q" unicode="Q" horiz-adv-x="692" 
d="M583 162c-15.333 -64 -40.1689 -108.5 -74.502 -133.5s-83.833 -38.167 -148.5 -39.5c29.333 0.666992 53.5 -7 72.5 -23s29.833 -40.667 32.5 -74c2.66699 -28.667 8 -47.667 16 -57s23.667 -14 47 -14h18v-17h-98c-21.333 0 -35.5 6.16699 -42.5 18.5
s-11.833 37.166 -14.5 74.499c-2.66699 34 -11 56.5 -25 67.5s-40 20.167 -78 27.5c-50 5.33301 -88.833 20.833 -116.5 46.5s-48.5 66.834 -62.5 123.501c-18 72.667 -26.333 162 -25 268c-1.33301 105.333 7 194.333 25 267c16.667 66 42.834 111.333 78.501 136
s88.5 37 158.5 37s122.833 -12.333 158.5 -37s61.834 -70 78.501 -136c16 -76 24 -165 24 -267c0 -112.667 -8 -202 -24 -268zM502.997 168c10 63.333 15 150.666 15 261.999c0 110.667 -5 197.667 -15 261c-9.33301 62 -25.5 102.833 -48.5 122.5s-59.167 29.5 -108.5 29.5
s-85.5 -9.83301 -108.5 -29.5s-39.167 -60.5 -48.5 -122.5c-10 -63.333 -15 -150.333 -15 -261c0 -111.333 5 -198.666 15 -261.999c9.33301 -62 25.5 -102.833 48.5 -122.5s59.167 -29.5 108.5 -29.5s85.5 9.83301 108.5 29.5s39.167 60.5 48.5 122.5z" />
    <glyph glyph-name="R" unicode="R" horiz-adv-x="705" 
d="M660 25l35 -0.00195312v-25h-60h-19c-20 0 -34.333 0.166992 -43 0.5s-18.834 1.83301 -30.501 4.5s-19.834 6.66699 -24.501 12s-9.66699 13.333 -15 24s-9 23.834 -11 39.501s-3.33301 35.5 -4 59.5l-7 169c-0.666992 24 -5.5 44.5 -14.5 61.5s-19.333 29.833 -31 38.5
s-26.667 15.334 -45 20.001s-33.666 7.5 -45.999 8.5s-27.5 1.5 -45.5 1.5h-86l-1 -414h108v-25h-269v25h78v810h-78v25h319c37.333 0 69 -4 95 -12s46 -17.833 60 -29.5s24.667 -27.667 32 -48s11.833 -38.833 13.5 -55.5s2.5 -38.334 2.5 -65.001
c0 -59.333 -12.667 -105.333 -38 -138s-65.666 -53 -120.999 -61c10.667 -0.666992 21.334 -2.16699 32.001 -4.5s23.667 -7.16602 39 -14.499s28.5 -16.333 39.5 -27s20.833 -26.167 29.5 -46.5s13.667 -43.5 15 -69.5l7 -153c2 -44 8.16699 -73.5 18.5 -88.5
s32.166 -22.5 65.499 -22.5zM213 463.998l106.999 -0.000976562c68 0 112.833 12.333 134.5 37s32.5 74.334 32.5 149.001c0 43.333 -1.66699 76.5 -5 99.5s-11.166 41.333 -23.499 55s-27.333 22.167 -45 25.5s-44.167 5 -79.5 5h-121v-371z" />
    <glyph glyph-name="S" unicode="S" horiz-adv-x="604" 
d="M543 214c0.666992 -82 -19.3311 -140 -59.998 -174s-108.334 -51 -203.001 -51c-38.667 0 -72 4.66699 -100 14s-49.5 20.666 -64.5 33.999s-26.833 30.166 -35.5 50.499s-14 38.666 -16 54.999s-3 35.166 -3 56.499v40h80v-40c0 -59.333 8.83301 -103.666 26.5 -132.999
s55.167 -45 112.5 -47c67.333 -2.66699 113.666 11.166 138.999 41.499s38 76.5 38 138.5c0 70.667 -10.167 118.5 -30.5 143.5s-67.5 55.833 -141.5 92.5c-4 2 -7 3.66699 -9 5l-30 14.5c-16 7.66699 -27.5 13.334 -34.5 17.001s-17.667 9.83398 -32 18.501
s-25.166 16.334 -32.499 23.001s-16.166 15.834 -26.499 27.501s-18 23.334 -23 35.001s-9.5 25.334 -13.5 41.001s-6 32.5 -6 50.5c0 73.333 19.833 125.333 59.5 156s95.834 46 168.501 46c88.667 0 139.334 -36 152.001 -108l6 104h56v-223h-65
c-3.33301 70 -15.666 120.333 -36.999 151s-59 46 -113 46s-93 -10 -117 -30s-36 -58.667 -36 -116c0 -14.667 1.5 -28.5 4.5 -41.5s6.16699 -24.167 9.5 -33.5s9.66602 -19 18.999 -29s16.166 -17.5 20.499 -22.5s13.666 -11.833 27.999 -20.5l27.5 -16.5
c4 -2.33301 14.833 -8 32.5 -17s28.167 -14.167 31.5 -15.5s11.666 -5.5 24.999 -12.5s22.833 -11.833 28.5 -14.5s15.167 -8 28.5 -16s23.166 -14.667 29.499 -20l26.5 -22.5c11.333 -9.66699 20 -18.834 26 -27.501s13 -19.5 21 -32.5s14 -26.167 18 -39.5
s7.5 -28.333 10.5 -45s4.5 -34.334 4.5 -53.001z" />
    <glyph glyph-name="T" unicode="T" horiz-adv-x="591" 
d="M511 662v173h-174v-810h142v-25h-367v25h142v810h-174v-173h-65v198h561v-198h-65z" />
    <glyph glyph-name="U" unicode="U" horiz-adv-x="700" 
d="M680 835h-86v-630c0 -143.333 -76.333 -215 -229 -215c-83.333 0 -147.833 16.667 -193.5 50s-68.5 82.666 -68.5 147.999v647h-78v25h239v-25h-78v-640c0 -116.667 60 -175 180 -175c62 0 108.333 15.833 139 47.5s46 76.834 46 135.501v632h-107v25h236v-25z" />
    <glyph glyph-name="V" unicode="V" horiz-adv-x="693" 
d="M688 860v-25h-89l-230 -835h-78l-223 835h-63v25h254v-25h-105l200 -755l1 1l210 754h-93v25h216z" />
    <glyph glyph-name="W" unicode="W" horiz-adv-x="1004" 
d="M999 860v-25h-71l-207 -835h-89l-137 537l-152 -537h-86l-190 835h-62v25h261v-25h-114l174 -767h3l150 533l-60 234h-52v25h252v-25h-106l189 -767h2l190 767h-119v25h224z" />
    <glyph glyph-name="X" unicode="X" horiz-adv-x="671" 
d="M581 25h85v-25h-274v25h99l-182 369l-189 -369h96v-25h-211v25h73l211 410l-198 400h-79v25h291v-25h-122l159 -323l165 323h-80v25h203v-25h-82l-186 -363z" />
    <glyph glyph-name="Y" unicode="Y" horiz-adv-x="700" 
d="M618 835l-213 -485v-325h142v-25h-367v25h142v325l-211 485h-106v25h309v-25h-115l192 -435l191 435h-105v25h218v-25h-77z" />
    <glyph glyph-name="Z" unicode="Z" horiz-adv-x="587" 
d="M544 835l-404 -810h336l-1 207h65l-1 -232h-496v25l410 810h-335v-207h-65l1 232h490v-25z" />
    <glyph glyph-name="bracketleft" unicode="[" horiz-adv-x="314" 
d="M259 885h-103v-1008h103v-25h-174v1058h174v-25z" />
    <glyph glyph-name="backslash" unicode="\" horiz-adv-x="346" 
d="M272 -97l-252 1032h28l253 -1032h-29z" />
    <glyph glyph-name="bracketright" unicode="]" horiz-adv-x="314" 
d="M55 885v25h174v-1058h-174v25h103v1008h-103z" />
    <glyph glyph-name="asciicircum" unicode="^" horiz-adv-x="585" 
d="M459 527l-21 -10l-148 308l-148 -308l-21 10l169 331z" />
    <glyph glyph-name="underscore" unicode="_" horiz-adv-x="569" 
d="M514 41v-41h-459v41h459z" />
    <glyph glyph-name="a" unicode="a" horiz-adv-x="509" 
d="M456 25l30.001 -0.00292969v-25h-74c-30.667 0 -50.334 4 -59.001 12s-12.667 25.667 -12 53c-19.333 -47.333 -64.333 -71 -135 -71c-32.667 0 -59.834 3.83301 -81.501 11.5s-37.5 18.834 -47.5 33.501s-16.667 29.334 -20 44.001s-5 32 -5 52c0 44.667 10 77 30 97
s59 34 117 42c24.667 4 55 6 91 6c22 0 38.333 -0.333008 49 -1v104c0 68 -30 102 -90 102c-18.667 0 -34.667 -2.33301 -48 -7s-23.166 -10.334 -29.499 -17.001s-11.333 -14.667 -15 -24s-5.66699 -17.166 -6 -23.499s-0.5 -13.5 -0.5 -21.5l1 -28h-72l-1 23
c-2 46 12 77.667 42 95s72 26 126 26c54.667 0 96 -9.16699 124 -27.5s42 -53.166 42 -104.499v-304c0 -17.333 3.16699 -29.5 9.5 -36.5s17.833 -10.5 34.5 -10.5zM339.001 153.997l-0.000976562 101.001c-18 2 -36 3 -54 3c-20 0 -38 -1.33301 -54 -4
c-44 -7.33301 -72.333 -20.833 -85 -40.5s-19 -47.167 -19 -82.5c0 -14 1 -26.167 3 -36.5s6 -22 12 -35s16.333 -23 31 -30s33.334 -10.5 56.001 -10.5c34.667 0 61.667 12.167 81 36.5s29 57.166 29 98.499z" />
    <glyph glyph-name="b" unicode="b" horiz-adv-x="556" 
d="M486 365c7.33301 -38 10.999 -78.333 10.999 -121c0 -39.333 -3.33301 -75.333 -10 -108c-10 -46.667 -28 -82.167 -54 -106.5s-68.667 -36.5 -128 -36.5c-84.667 0 -135 37.667 -151 113l-4 -106h-60v835h-70v25c42 0 89.667 3.33301 143 10v-79l-1 -381
c18 63.333 68 95 150 95c54 0 94.333 -11.667 121 -35s44.334 -58.333 53.001 -105zM413.999 128c5.33301 35.333 7.99805 75.666 7.99805 120.999c0 44 -2.66699 84.333 -8 121c-6 42 -17 71.167 -33 87.5s-41.333 24.5 -76 24.5c-26 0 -47.833 -3.83301 -65.5 -11.5
s-31.167 -18.834 -40.5 -33.501s-16.166 -28.667 -20.499 -42s-7.83301 -29.666 -10.5 -48.999c-3.33301 -23.333 -5 -55.666 -5 -96.999c0 -42 1.66699 -74.667 5 -98c2.66699 -19.333 6.16699 -35.833 10.5 -49.5s11.333 -27.5 21 -41.5s23.334 -24.833 41.001 -32.5
s39.167 -11.5 64.5 -11.5c34.667 0 60 8.16699 76 24.5s27 45.5 33 87.5z" />
    <glyph glyph-name="c" unicode="c" horiz-adv-x="477" 
d="M358 158l64.002 0.000976562v-23c0 -20 -2 -37.333 -6 -52s-11.667 -29.334 -23 -44.001s-29 -25.834 -53 -33.501s-53.667 -11.5 -89 -11.5s-64.5 3.16699 -87.5 9.5s-41 16.333 -54 30s-22.333 28.167 -28 43.5s-10.5 35.333 -14.5 60c-5.33301 36 -8 73.667 -8 113
s2.66699 77 8 113c8 49.333 23.667 85.5 47 108.5s66.333 34.5 129 34.5c42 0 72 -7.83301 90 -23.5s30 -36.5 36 -62.5l4 80h45v-151h-60c0 42 -8 74.833 -24 98.5s-46.333 35.5 -91 35.5c-10.667 0 -20.334 -0.5 -29.001 -1.5s-16.334 -3.16699 -23.001 -6.5
s-12.334 -6 -17.001 -8s-8.83398 -6.33301 -12.501 -13s-6.5 -11 -8.5 -13s-3.83301 -7.83301 -5.5 -17.5l-3 -17.5c-0.333008 -2 -1.16602 -9 -2.49902 -21s-2 -18.667 -2 -20c-4 -32.667 -6 -72 -6 -118c0 -43.333 2 -80.666 6 -111.999
c4.66699 -40 10.334 -65.667 17.001 -77c14.667 -27.333 46 -41 94 -41c41.333 0 69.5 8.33301 84.5 25s22.5 46.667 22.5 90v26z" />
    <glyph glyph-name="d" unicode="d" horiz-adv-x="564" 
d="M511 25l30.001 -0.000976562v-25h-74c-31.333 0 -49.833 5.33301 -55.5 16s-8.5 40.334 -8.5 89.001c-16 -74.667 -66.667 -112 -152 -112c-58 0 -100.333 12 -127 36s-44.667 58.667 -54 104c-6.66699 32.667 -10 68.667 -10 108c0 46 3.33301 86.333 10 121
c9.33301 47.333 27.166 83 53.499 107s66.5 36 120.5 36c82.667 0 133 -31.667 151 -95l-2 382v44h-70v25c42 0 89.667 3.33301 143 10v-59l1 -731c0 -37.333 14.667 -56 44 -56zM388.001 143.999c4 28 6 60.999 6 98.999c0 42.667 -1.66699 75.667 -5 99
c-5.33301 43.333 -17.5 77.5 -36.5 102.5s-52.833 37.5 -101.5 37.5c-35.333 0 -60.833 -8.83301 -76.5 -26.5s-26.5 -48.167 -32.5 -91.5c-4.66699 -32 -7 -72.333 -7 -121c0 -45.333 2.66699 -85.666 8 -120.999c6 -38.667 17 -66 33 -82s41 -24 75 -24
c47.333 0 80.5 11.667 99.5 35s31.5 54.333 37.5 93z" />
    <glyph glyph-name="e" unicode="e" horiz-adv-x="493" 
d="M370 157l63.999 0.000976562c0 -56.667 -12.833 -98.167 -38.5 -124.5s-69.167 -39.5 -130.5 -39.5s-109.5 11.667 -144.5 35s-54.5 66 -58.5 128c-2 30.667 -3 62 -3 94s1 63.333 3 94c4 62 22.833 104.667 56.5 128s79.167 35 136.5 35c52 0 94 -11.833 126 -35.5
s50 -66.167 54 -127.5v-98h-301c0 -28 1 -60 3 -96c3.33301 -46.667 14.333 -80.667 33 -102s50.334 -32 95.001 -32c42 0 70 10.667 84 32s21 57.666 21 108.999zM136.999 350.001c-2 -26.667 -3 -52.999 -3 -78.999h236c0 33.333 -0.333008 58.666 -1 75.999
c-0.666992 13.333 -1.5 24.5 -2.5 33.5s-3.66699 20.667 -8 35s-10.166 26 -17.499 35s-18.333 16.833 -33 23.5s-32.334 10 -53.001 10c-40 0 -68.833 -10.667 -86.5 -32s-28.167 -55.333 -31.5 -102z" />
    <glyph glyph-name="f" unicode="f" horiz-adv-x="382" 
d="M246 847c-14.667 0 -26.499 -2.99902 -35.499 -8.99902s-15.667 -16 -20 -30s-7 -27.833 -8 -41.5s-1.5 -32.167 -1.5 -55.5v-211h132v-25h-132v-450h97v-25h-250v25h80v450h-80v25h80l-1 208c0 55.333 10.5 96.166 31.5 122.499s56.5 39.5 106.5 39.5
c39.333 0 69.666 -8.33301 90.999 -25s32 -47 32 -91c0 -13.333 -1 -27 -3 -41h-63c2 16 3 31 3 45c0 36 -5.5 59.833 -16.5 71.5s-25.167 17.5 -42.5 17.5z" />
    <glyph glyph-name="g" unicode="g" horiz-adv-x="506" 
d="M244 63c90.667 0 151.166 -11.333 181.499 -34s45.5 -68 45.5 -136c0 -65.333 -15 -108.833 -45 -130.5s-89.667 -32.5 -179 -32.5c-75.333 0 -128.5 10.833 -159.5 32.5s-46.5 59.5 -46.5 113.5c0 29.333 2.66699 57.333 8 84l75 -9c-5.33301 -24 -8 -49 -8 -75
c0 -19.333 1 -34.833 3 -46.5s7 -24.167 15 -37.5s21.5 -23.166 40.5 -29.499s43.5 -9.5 73.5 -9.5c58.667 0 98 9.5 118 28.5s30 56.167 30 111.5c0 46.667 -10 77.667 -30 93s-59.667 23 -119 23c-35.333 0 -64.333 2.33301 -87 7s-39 11.834 -49 21.501
s-16.5 18.667 -19.5 27s-4.5 18.166 -4.5 29.499c0 19.333 6.33301 36 19 50s28.334 22.667 47.001 26c-35.333 9.33301 -59.833 27.166 -73.5 53.499s-20.5 63.166 -20.5 110.499c0.666992 62 14 106.333 40 133s74.667 40 146 40c18.667 0 41.5 -1.83301 68.5 -5.5
s42.5 -5.5 46.5 -5.5c12 0.666992 22.167 4.5 30.5 11.5s12.5 15.833 12.5 26.5c0 8.66699 -2 18.334 -6 29.001s-8 19 -12 25l-6 10l70 6c14 -18 20.667 -36.667 20 -56c-1.33301 -45.333 -32.333 -68 -93 -68c20 -12.667 34.167 -30.667 42.5 -54s12.833 -53.333 13.5 -90
c-0.666992 -62.667 -13.667 -107.5 -39 -134.5s-73 -40.833 -143 -41.5c-81.333 0 -122 -15.667 -122 -47c0 -33.333 38.667 -50 116 -50zM129.999 335c-0.666992 -57.333 7.83203 -97 25.499 -119s47.5 -33 89.5 -33c44.667 0 75.334 10.833 92.001 32.5
s24.667 61.5 24 119.5s-9 97.5 -25 118.5s-46.333 31.167 -91 30.5c-44 0 -74 -10.333 -90 -31s-24.333 -60 -25 -118z" />
    <glyph glyph-name="h" unicode="h" horiz-adv-x="568" 
d="M515 25l29.999 -0.000976562v-25h-92c-18.667 0 -32.5 2.83301 -41.5 8.5s-13.5 17.5 -13.5 35.5v318c0 16.667 -0.833008 30.334 -2.5 41.001s-5.5 22.834 -11.5 36.501s-16.5 24 -31.5 31s-34.5 10.5 -58.5 10.5c-35.333 0 -65.166 -13.5 -89.499 -40.5
s-36.5 -64.5 -36.5 -112.5v-303h79v-25h-222v25h70v810h-65v25c54 0 100 2.33301 138 7v-454c10.667 29.333 29.5 52.166 56.5 68.499s59.167 24.5 96.5 24.5c54 0 92.5 -12 115.5 -36s34.5 -57.667 34.5 -101v-288c0 -37.333 14.667 -56 44 -56z" />
    <glyph glyph-name="i" unicode="i" horiz-adv-x="258" 
d="M131 645c-19.333 0 -33.167 4.16797 -41.5 12.501s-12.5 22.166 -12.5 41.499c0 36.667 18 55 54 55c36.667 0 55 -18.333 55 -55c0 -36 -18.333 -54 -55 -54zM170.999 25.001h59v-25h-202v25h70v450h-70v25c42 0 89.667 3.33301 143 10v-485z" />
    <glyph glyph-name="j" unicode="j" horiz-adv-x="267" 
d="M134 754c18 0 31.5 -5.33301 40.5 -16s13.5 -23.667 13.5 -39c0 -36 -18 -54 -54 -54c-19.333 0 -33.333 4.16699 -42 12.5s-13 21.833 -13 40.5c0 37.333 18.333 56 55 56zM173 510l0.000976562 -51.999l1 -585c0 -47.333 -10 -79.5 -30 -96.5s-55.667 -25.5 -107 -25.5
c-20 0 -38.667 1.33301 -56 4l1 25c17.333 -2.66699 31.666 -4 42.999 -4c8 0 15.333 0.5 22 1.5s12.5 2.16699 17.5 3.5s9.5 3.83301 13.5 7.5s7.16699 6.16699 9.5 7.5s4.5 5.16602 6.5 11.499s3.5 10.333 4.5 12s1.66699 6.66699 2 15s0.5 13.333 0.5 15v17.5v18l-1 563
v27h-70v25c42 0 89.667 3.33301 143 10z" />
    <glyph glyph-name="k" unicode="k" horiz-adv-x="535" 
d="M479 25l21.001 0.000976562v-25h-54h-14c-17.333 0 -29.5 0.333008 -36.5 1s-14 3.66699 -21 9s-11.667 13.333 -14 24s-4.16602 26.667 -5.49902 48l-7 94c-2 28 -10.5 46.5 -25.5 55.5s-48.167 13.5 -99.5 13.5h-55v-220h79v-25h-222v25h70v810h-64v25
c54 0 99.667 2.33301 137 7v-597h53c27.333 0 48.666 1.83301 63.999 5.5s27.5 12 36.5 25s14.833 26 17.5 39s6 34.833 10 65.5l9 70h-55v25h185v-25h-70l-11 -75c-8 -52.667 -17.667 -87.834 -29 -105.501s-33.333 -28.5 -66 -32.5l-1 -1
c69.333 -5.33301 106.666 -36 111.999 -92l7 -80c2 -26 5.83301 -43.167 11.5 -51.5s18.167 -12.5 37.5 -12.5z" />
    <glyph glyph-name="l" unicode="l" horiz-adv-x="264" 
d="M207 24h25v-25h-87c-18.667 0 -32.5 2.83301 -41.5 8.5s-13.5 17.5 -13.5 35.5v792h-70v25c58 0 105.667 2.33301 143 7v-787c0 -37.333 14.667 -56 44 -56z" />
    <glyph glyph-name="m" unicode="m" horiz-adv-x="862" 
d="M809 25l29.999 0.00292969v-25h-92c-18.667 0 -32.5 2.83301 -41.5 8.5s-13.5 17.5 -13.5 35.5v319c0 17.333 -0.666992 31.166 -2 41.499s-4.33301 22.333 -9 36s-13.334 24 -26.001 31s-29 10.5 -49 10.5c-35.333 0 -67.166 -13.667 -95.499 -41
s-42.5 -64.666 -42.5 -111.999v-304h90v-25h-233v25h70v338c0 13.333 -0.333008 24.166 -1 32.499s-2.66699 18.666 -6 30.999s-8.16602 22 -14.499 29s-15.833 13.167 -28.5 18.5s-27.667 8 -45 8c-31.333 0 -60.666 -13.833 -87.999 -41.5s-41 -64.834 -41 -111.501v-304
h70v-25h-213v25h70v450h-70v25c53.333 0 98.666 2.33301 135.999 7l1 -76l1 -20c10.667 30.667 31.667 54.167 63 70.5s64 24.5 98 24.5c79.333 0 125.333 -31.667 138 -95c12 30 33.5 53.333 64.5 70s62.833 25 95.5 25c54 0 90.833 -11.5 110.5 -34.5
s29.5 -57.167 29.5 -102.5v-289c0 -36.667 14.667 -55 44 -55z" />
    <glyph glyph-name="n" unicode="n" horiz-adv-x="571" 
d="M518 25l29.999 -0.00195312v-25h-92c-18.667 0 -32.5 2.83301 -41.5 8.5s-13.5 17.5 -13.5 35.5v319c0 16.667 -0.833008 30.334 -2.5 41.001s-5.5 22.834 -11.5 36.501s-16.5 24 -31.5 31s-34.5 10.5 -58.5 10.5c-35.333 0 -65.166 -13.5 -89.499 -40.5
s-36.5 -64.5 -36.5 -112.5v-304h79v-25h-222v25h70v450h-70v25c54 0 99.667 2.33301 137 7l1 -76v-19c11.333 30 31 53.167 59 69.5s61 24.5 99 24.5c54 0 92.5 -12 115.5 -36s34.5 -57.667 34.5 -101v-288c0 -37.333 14.667 -56 44 -56z" />
    <glyph glyph-name="o" unicode="o" horiz-adv-x="534" 
d="M466 363c5.33301 -30 8.00098 -67.667 8.00098 -113s-2.66699 -83 -8 -113c-7.33301 -48 -25.5 -83.833 -54.5 -107.5s-77.167 -35.5 -144.5 -35.5s-115.5 11.833 -144.5 35.5s-47.167 59.5 -54.5 107.5c-5.33301 36 -8 73.667 -8 113s2.66699 77 8 113
c7.33301 47.333 25.666 83 54.999 107s77.333 36 144 36c66 0 113.667 -11.833 143 -35.5s48 -59.5 56 -107.5zM392.001 135c4.66699 37.333 7 75.668 7 115.001s-2.33301 77.666 -7 114.999c-2 18 -4.83301 33 -8.5 45s-9.66699 24.167 -18 36.5s-20.666 21.5 -36.999 27.5
s-36.833 9 -61.5 9s-45.167 -3 -61.5 -9s-28.666 -15.167 -36.999 -27.5s-14.333 -24.5 -18 -36.5s-6.5 -27 -8.5 -45c-4.66699 -46.667 -7 -85 -7 -115s2.33301 -68.333 7 -115c2 -18 4.83301 -33 8.5 -45s9.66699 -24.167 18 -36.5s20.666 -21.5 36.999 -27.5
s36.833 -9 61.5 -9s45.167 3 61.5 9s28.666 15.167 36.999 27.5s14.333 24.5 18 36.5s6.5 27 8.5 45z" />
    <glyph glyph-name="p" unicode="p" horiz-adv-x="563" 
d="M492 364c7.33301 -35.333 10.999 -72.001 10.999 -110.001c0 -44 -3.33301 -83.333 -10 -118c-9.33301 -47.333 -27.5 -83 -54.5 -107s-67.5 -36 -121.5 -36c-37.333 0 -68.666 6.16699 -93.999 18.5s-44 35.5 -56 69.5v-321h-72v713h-70v25c54 0 99.667 2.33301 137 7
l2 -111c14.667 74 64 111 148 111c58.667 0 101 -11.667 127 -35s43.667 -58.666 53 -105.999zM172.999 154.999c2.66699 -19.333 6.16699 -35.665 10.5 -48.998s11 -27.666 20 -42.999s22.5 -27 40.5 -35s40 -12 66 -12c36.667 0 62.667 8.66699 78 26s26 47.666 32 90.999
c4.66699 32 7 72.333 7 121c0 45.333 -2.66699 85.666 -8 120.999c-6 39.333 -17 67 -33 83s-41.333 24 -76 24c-45.333 0 -77.833 -11.833 -97.5 -35.5s-32.167 -54.834 -37.5 -93.501c-4 -28 -6 -61 -6 -99c0 -47.333 1.33301 -80.333 4 -99z" />
    <glyph glyph-name="q" unicode="q" horiz-adv-x="549" 
d="M407 500l60 0.00195312v-740h-73l2 321c-13.333 -34.667 -32.166 -57.834 -56.499 -69.501s-55.833 -17.5 -94.5 -17.5c-54 0 -94.333 11.667 -121 35s-44.334 58.666 -53.001 105.999c-7.33301 38 -11 78.333 -11 121c0 36.667 3.66699 72.667 11 108
c9.33301 46 26.833 81 52.5 105s68.5 36 128.5 36c82.667 0 131.667 -37 147 -111zM389 155.002c3.33301 23.333 4.99902 56.332 4.99902 98.999c0 41.333 -1.66699 73.666 -5 96.999c-5.33301 38 -17.666 69.333 -36.999 94s-52.666 37 -99.999 37
c-34.667 0 -59.834 -8 -75.501 -24s-26.5 -43.667 -32.5 -83c-5.33301 -35.333 -8 -75.666 -8 -120.999c0 -48.667 2.33301 -89 7 -121c6 -44 17 -74.5 33 -91.5s41.333 -25.5 76 -25.5c26 0 48 3.83301 66 11.5s31.667 18.834 41 33.501s16 29 20 43s7.33301 31 10 51z" />
    <glyph glyph-name="r" unicode="r" horiz-adv-x="419" 
d="M275 506c44 0 74.8311 -7.5 92.498 -22.5s26.5 -42.167 26.5 -81.5v-55l-60 1v47c0 30 -3.66699 52.167 -11 66.5s-23.333 21.5 -48 21.5c-36 0 -62.333 -13.333 -79 -40s-25 -72 -25 -136v-282h106v-25h-249v25h70v450h-70v25c36.667 0 78.334 3.33301 125.001 10
l3 -110c7.33301 35.333 21.333 61.833 42 79.5s46.334 26.5 77.001 26.5z" />
    <glyph glyph-name="s" unicode="s" horiz-adv-x="455" 
d="M266 300c51.333 -14 87.3301 -32.834 107.997 -56.501s31 -57.834 31 -102.501c0 -44 -13.833 -79.5 -41.5 -106.5s-72.167 -40.5 -133.5 -40.5c-38 0 -69.667 3.66699 -95 11s-43.833 18.166 -55.5 32.499s-19.667 29 -24 44s-6.5 32.833 -6.5 53.5v23h68v-21
c0 -45.333 9 -76.666 27 -93.999s46.667 -26 86 -26c40.667 0 71.167 8.83301 91.5 26.5s30.5 45.5 30.5 83.5c0 25.333 -8.16699 46.333 -24.5 63s-51.166 32.334 -104.499 47.001c-58.667 16 -99.667 33.333 -123 52s-35 51 -35 97c0 13.333 2 26.333 6 39
s10.833 25.667 20.5 39s24.834 24 45.501 32s45.667 12 75 12c61.333 0 99.333 -25.667 114 -77l2 71h48v-134h-62c0 34.667 -8.33301 62.834 -25 84.501s-42 32.5 -76 32.5c-34.667 0 -59.667 -6 -75 -18s-23 -31.667 -23 -59c0 -9.33301 1.16699 -18 3.5 -26
s5 -14.667 8 -20s8 -10.666 15 -15.999s13 -9.5 18 -12.5s12.833 -6.33301 23.5 -10s18.834 -6.33398 24.501 -8.00098s15.167 -4.16699 28.5 -7.5s23.333 -6 30 -8z" />
    <glyph glyph-name="t" unicode="t" horiz-adv-x="370" 
d="M273 141h51.999v-42c0 -41.333 -10.333 -69.833 -31 -85.5s-49 -23.5 -85 -23.5c-30 0 -53.5 2.33301 -70.5 7s-29.833 13.667 -38.5 27s-14.167 27.833 -16.5 43.5s-3.5 38.5 -3.5 68.5v339h-70v25h70v187c30 0 54.333 2.33301 73 7v-194h132v-25h-132v-332
c0 -52 3 -85 9 -99c8.66699 -20.667 26.334 -31 53.001 -31c38.667 0 58 34.667 58 104v24z" />
    <glyph glyph-name="u" unicode="u" horiz-adv-x="575" 
d="M509 25l26.002 -0.00195312v-25h-77c-30.667 0 -49.334 4.83301 -56.001 14.5s-9.33398 33.5 -8.00098 71.5c-22 -61.333 -74.667 -92 -158 -92c-49.333 0 -85.5 11.5 -108.5 34.5s-34.5 60.5 -34.5 112.5v334h-70v25c58 0 105.667 2.33301 143 7v-369
c0 -16 1 -29.667 3 -41s6.16699 -23.666 12.5 -36.999s16.833 -23.666 31.5 -30.999s33 -11 55 -11c35.333 0 64.833 15.167 88.5 45.5s35.5 70.833 35.5 121.5v290h-70v25c58 0 105.667 2.33301 143 7v-436c0 -19.333 2.83301 -31.833 8.5 -37.5s17.5 -8.5 35.5 -8.5z" />
    <glyph glyph-name="v" unicode="v" horiz-adv-x="503" 
d="M488 500v-25h-61l-137 -475h-73l-142 475h-60v25h211v-25h-75l125 -426l121 426h-72v25h163z" />
    <glyph glyph-name="w" unicode="w" horiz-adv-x="698" 
d="M693 500v-25h-43l-128 -475h-77l-95 348l-94 -348h-75l-131 475h-45v25h201v-25h-84l117 -423l97 348l-20 75h-53v25h212v-25h-86l116 -424l116 424h-61v25h133z" />
    <glyph glyph-name="x" unicode="x" horiz-adv-x="515" 
d="M445 25h65v-25h-194v25h45l-130 209l-131 -209h74v-25h-169v25h62l147 236l-135 217h-66v22h217v-22h-65l105 -170l107 170h-54v22h170v-22h-83l-123 -197z" />
    <glyph glyph-name="y" unicode="y" horiz-adv-x="543" 
d="M323 475l-0.00195312 25.001c54.667 0 100.667 2.33301 138 7v-76l-1 -471c0 -78 -14.333 -132.5 -43 -163.5s-80.667 -46.5 -156 -46.5c-38.667 0 -70.834 3.66699 -96.501 11s-44.667 18.166 -57 32.499s-20.666 29 -24.999 44s-6.5 32.833 -6.5 53.5v23h67v-16
c0 -47.333 8.83301 -80 26.5 -98s47.834 -27 90.501 -27c55.333 0 91.166 14.167 107.499 42.5s24.5 75.5 24.5 141.5v147c-5.33301 -21.333 -14.5 -39.5 -27.5 -54.5s-27.667 -25.833 -44 -32.5s-31.166 -11.167 -44.499 -13.5s-26.666 -3.5 -39.999 -3.5
c-55.333 0 -93.833 13.167 -115.5 39.5s-32.5 61.5 -32.5 105.5v330h-65v25c54.667 0 100.667 2.33301 138 7v-365c0 -78.667 30 -118 90 -118c90.667 0 136 68.667 136 206v245h-64z" />
    <glyph glyph-name="z" unicode="z" horiz-adv-x="469" 
d="M364 151h54v-151h-356v30l270 444h-217v-124h-54v150h351v-32l-270 -442h222v125z" />
    <glyph glyph-name="braceleft" unicode="{" horiz-adv-x="356" 
d="M199 734v-351.004c0 -59.333 -28.333 -90.666 -85 -93.999c56.667 -3.33301 85 -34.666 85 -93.999v-329c0 -74 25.667 -111 77 -111h25v-25h-27c-53.333 0 -91 11.333 -113 34s-33 56.334 -33 101.001v338c0 29.333 -4 48.833 -12 58.5s-24 14.5 -48 14.5h-13v26h13
c24 0 40 4.83301 48 14.5s12 29.167 12 58.5v350c0 44.667 11 78.334 33 101.001s59.667 34 113 34h27v-25h-25c-24 0 -42.833 -8.66699 -56.5 -26s-20.5 -42.333 -20.5 -75z" />
    <glyph glyph-name="braceright" unicode="}" horiz-adv-x="356" 
d="M157 383v351.004c0 32.667 -6.83301 57.667 -20.5 75s-32.5 26 -56.5 26h-25v25h27c53.333 0 91 -11.333 113 -34s33 -56.334 33 -101.001v-350c0 -29.333 4 -48.833 12 -58.5s24 -14.5 48 -14.5h13v-26h-13c-24 0 -40 -4.83301 -48 -14.5s-12 -29.167 -12 -58.5v-338
c0 -44.667 -11 -78.334 -33 -101.001s-59.667 -34 -113 -34h-27v25h25c51.333 0 77 37 77 111v329c0 59.333 28.333 90.666 85 93.999c-56.667 3.33301 -85 34.666 -85 93.999z" />
    <glyph glyph-name="uni0400" unicode="&#x400;" 
d="M234 1160c14 1.33301 30.333 -8 49 -28c60.667 -66.667 115.667 -122 165 -166l-12 -13c-30.667 21.333 -81.667 52.333 -153 93c-32.667 18.667 -55.167 33 -67.5 43s-18.5 21.333 -18.5 34c0 10.667 3.33301 19.5 10 26.5s15.667 10.5 27 10.5zM421 433h-209v-408h280
v174h65v-199h-506v25h78v810h-78v25h502v-196h-65v171h-276v-372h209v92h43v-224h-43v102z" />
    <glyph glyph-name="uni0401" unicode="&#x401;" 
d="M242 961c-34 0 -51 18 -51 54c0 36.667 17 55 51 55c33.333 0 50 -18.333 50 -55c0 -36 -16.667 -54 -50 -54zM402 961c-34 0 -51 18 -51 54c0 36.667 17 55 51 55c33.333 0 50 -18.333 50 -55c0 -36 -16.667 -54 -50 -54zM421 433h-209v-408h280v174h65v-199h-506v25h78
v810h-78v25h502v-196h-65v171h-276v-372h209v92h43v-224h-43v102z" />
    <glyph glyph-name="uni0402" unicode="&#x402;" horiz-adv-x="822" 
d="M559 507c64 0 108.333 -14.001 133 -42.001s37 -69 37 -123l-2 -376c0 -77.333 -20.167 -136 -60.5 -176s-93.833 -60 -160.5 -60c-16.667 0 -35 1.33301 -55 4l2 20c13.333 -4 30.666 -6 51.999 -6c51.333 1.33301 86.833 19.833 106.5 55.5
s29.834 89.834 30.501 162.501l2 379c0 12.667 -0.5 24 -1.5 34s-3.66699 21.667 -8 35s-10.333 24.333 -18 33s-19 16.167 -34 22.5s-32.833 9.5 -53.5 9.5c-36 0 -71.667 -14.5 -107 -43.5s-53 -65.167 -53 -108.5v-302h98v-25h-293v25h112v810h-174v-173h-65v198h561
v-198h-65v173h-174v-434c15.333 33.333 41.333 59.333 78 78s74 28 112 28z" />
    <glyph glyph-name="uni0403" unicode="&#x403;" horiz-adv-x="563" 
d="M456 1160c24.667 -2 37 -14.334 37 -37.001c0 -12.667 -6 -23.667 -18 -33s-34.667 -23.666 -68 -42.999c-66.667 -38 -117.667 -69.333 -153 -94l-12 13c34 30.667 89 86 165 166c18.667 20 35 29.333 49 28zM547 859.999l1 -231l-65 -1v207h-271v-810h88v-25h-249v25
h78v810h-78v25h496z" />
    <glyph glyph-name="uni0408" unicode="&#x408;" horiz-adv-x="486" 
d="M173 860l291.999 0.00195312v-25h-79v-692c0 -52.667 -17.5 -91.167 -52.5 -115.5s-79.5 -36.5 -133.5 -36.5c-20 0 -39 1.5 -57 4.5s-37 8.5 -57 16.5s-35.833 20.667 -47.5 38s-17.5 38.666 -17.5 63.999l-1 54l71 1l1 -59c0.666992 -59.333 36.334 -89 107.001 -89
c11.333 0 22 1.16699 32 3.5s21 6.66602 33 12.999s21.5 17 28.5 32s10.5 33.5 10.5 55.5v710h-130v25z" />
    <glyph glyph-name="uni0409" unicode="&#x409;" horiz-adv-x="996" 
d="M556 510l137.999 -0.00195312c29.333 0 54.666 -1.66699 75.999 -5s40 -7.83301 56 -13.5s29 -14.5 39 -26.5s18.167 -24.333 24.5 -37s11 -30.5 14 -53.5s5 -45.167 6 -66.5s1.5 -49.333 1.5 -84c0 -44 -4.16699 -80.667 -12.5 -110s-17.666 -51.666 -27.999 -66.999
s-28.166 -26.666 -53.499 -33.999s-47 -11.5 -65 -12.5s-47 -1.5 -87 -1.5h-18l-243 1v25h76v769l-4 2l-373 -771h87v-25h-185v25h56l406 835h180v-25h-91v-325zM556.999 24.998l114.001 -1c63.333 -0.666992 104.666 13.833 123.999 43.5s29 85.834 29 168.501
c0 41.333 -0.833008 74.166 -2.5 98.499s-5 47.5 -10 69.5s-12.667 38 -23 48s-23.833 18 -40.5 24s-38 9 -64 9h-128z" />
    <glyph glyph-name="uni040A" unicode="&#x40a;" horiz-adv-x="1038" 
d="M605 510l131.001 -0.000976562c29.333 0 54.666 -1.66699 75.999 -5s40 -7.83301 56 -13.5s29 -14.5 39 -26.5s18.167 -24.333 24.5 -37s11 -30.5 14 -53.5s5 -45.167 6 -66.5s1.5 -49.333 1.5 -84c0 -44 -4.16699 -80.5 -12.5 -109.5s-17.5 -51.167 -27.5 -66.5
s-27.667 -26.666 -53 -33.999s-47 -11.5 -65 -12.5s-46.667 -1.5 -86 -1.5h-20h-238v25h78v406h-317v-406h78v-25h-239v25h78v810h-78v25h239v-25h-78v-370h317v370h-78v25h247v-25h-93v-325zM605.001 24.999l107.999 0.000976562c64.667 0 106.334 13.667 125.001 41
s28 84 28 170c0 41.333 -0.833008 74.166 -2.5 98.499s-5 47.5 -10 69.5s-12.667 38 -23 48s-23.833 18 -40.5 24s-38 9 -64 9h-121v-460z" />
    <glyph glyph-name="uni040B" unicode="&#x40b;" horiz-adv-x="864" 
d="M773 25l27.999 0.000976562v-25h-88c-15.333 0 -27 0.833008 -35 2.5s-15.333 7 -22 16s-10 22.5 -10 40.5v273c0 16.667 -0.5 30.5 -1.5 41.5s-3.66699 23.833 -8 38.5s-10.333 26.167 -18 34.5s-19.167 15.666 -34.5 21.999s-33.666 9.5 -54.999 9.5
c-37.333 0 -73.333 -13.5 -108 -40.5s-52 -63.5 -52 -109.5v-303l117 -1v-25l-342 1v25h142v810h-174v-175h-65v200h561v-200h-65v175h-174v-431c13.333 31.333 38.333 56.333 75 75s75 28 115 28c67.333 0 112.5 -11.5 135.5 -34.5s34.5 -57.5 34.5 -103.5l1 -296
c0 -32 14.333 -48 43 -48z" />
    <glyph glyph-name="uni040C" unicode="&#x40c;" horiz-adv-x="678" 
d="M442 1160c24.667 -2 37 -14.334 37 -37.001c0 -12.667 -6 -23.667 -18 -33s-34.667 -23.666 -68 -42.999c-66.667 -38 -117.667 -69.333 -153 -94l-12 13c34 30.667 89 86 165 166c18.667 20 35 29.333 49 28zM638 24.999l34.9971 0.000976562v-25h-61h-19
c-19.333 0 -33.166 0.166992 -41.499 0.5s-18.333 1.83301 -30 4.5s-19.5 6.66699 -23.5 12s-8.83301 13.5 -14.5 24.5s-9.5 24.333 -11.5 40s-4 35.5 -6 59.5l-12 170c-3.33301 42 -17.166 72.833 -41.499 92.5s-65.166 29.5 -122.499 29.5h-78v-408h108v-25h-269v25h78
v810h-78v25h255v-25h-94v-372h76c30.667 0 55.167 3.5 73.5 10.5s33.166 21 44.499 42s19.333 43.667 24 68s10 61.166 16 110.499l16 141h-68v25h230v-25h-86l-19 -149c-10 -86.667 -24.833 -146 -44.5 -178s-53.5 -51.667 -101.5 -59c104.667 -8 160.667 -60.667 168 -158
l13 -154c4 -45.333 10.833 -75.333 20.5 -90s30.834 -22 63.501 -22z" />
    <glyph glyph-name="uni040D" unicode="&#x40d;" horiz-adv-x="744" 
d="M280 1160c14 1.33301 30.333 -8 49 -28c60.667 -66.667 115.667 -122 165 -166l-12 -13c-30.667 21.333 -81.667 52.333 -153 93c-32.667 18.667 -55.167 33 -67.5 43s-18.5 21.333 -18.5 34c0 10.667 3.33301 19.5 10 26.5s15.667 10.5 27 10.5zM121 835h-70v25h232v-25
h-79v-750h3l294 775h192v-25h-79v-810h79v-25h-240v25h78v803h-2l-314 -828h-94v835z" />
    <glyph glyph-name="uni040F" unicode="&#x40f;" horiz-adv-x="772" 
d="M720 25v-25h-303v-202h-71v202h-295v25h78v810h-78v25h240v-25h-79v-810h317v810h-78v25h240v-25h-79v-810h108z" />
    <glyph glyph-name="uni0410" unicode="&#x410;" horiz-adv-x="635" 
d="M567 25h63v-25h-255v25h105l-61 267h-247l-67 -267h90v-25h-190v25h62l209 838h91zM180 322h232l-110 479h-3z" />
    <glyph glyph-name="uni0411" unicode="&#x411;" horiz-adv-x="635" 
d="M212 511l130.999 -0.00195312c29.333 0 54.666 -1.66699 75.999 -5s40 -7.83301 56 -13.5s29 -14.5 39 -26.5s18.167 -24.333 24.5 -37s11 -30.5 14 -53.5s5 -45.167 6 -66.5s1.5 -49.333 1.5 -84c0 -44 -4.16699 -80.667 -12.5 -110s-17.666 -51.666 -27.999 -66.999
s-28.166 -26.666 -53.499 -33.999s-47 -11.5 -65 -12.5s-47 -1.5 -87 -1.5h-18h-245v25h78v810h-78v25h494l1 -231h-65v206h-269v-324zM211.999 24.998l107.999 -0.000976562c64.667 0 106.334 13.833 125.001 41.5s28 84.5 28 170.5c0 54.667 -1.16699 95.834 -3.5 123.501
s-8.5 52.167 -18.5 73.5s-24 35.333 -42 42s-43.333 10 -76 10h-121v-461z" />
    <glyph glyph-name="uni0412" unicode="&#x412;" horiz-adv-x="636" 
d="M51 860l286.999 0.00195312c32 0 59.833 -1.83301 83.5 -5.5s43.334 -9.83398 59.001 -18.501s28.167 -18.167 37.5 -28.5s16.5 -24.166 21.5 -41.499s8.33301 -34.5 10 -51.5s2.5 -38.5 2.5 -64.5c0 -23.333 -1.66699 -44.333 -5 -63s-9.5 -36.834 -18.5 -54.501
s-22.5 -32.334 -40.5 -44.001s-40.333 -19.167 -67 -22.5c59.333 -8 98.166 -26.667 116.499 -56s27.5 -82.666 27.5 -159.999c0 -36.667 -1 -65.834 -3 -87.501s-6.83301 -44.167 -14.5 -67.5s-19.167 -41 -34.5 -53s-36.666 -22 -63.999 -30s-61 -12 -101 -12h-297v25h78
v810h-78v25zM211.999 472.002l113.003 0.00292969c56 0 93.5 13.5 112.5 40.5s28.5 72.833 28.5 137.5c0 20.667 -0.166992 36 -0.5 46s-1.33301 23 -3 39s-4.33398 27.667 -8.00098 35s-9 16.166 -16 26.499s-15.833 17.666 -26.5 21.999s-23.834 8.16602 -39.501 11.499
s-33.834 5 -54.501 5h-106v-363zM212.002 25.0049l125.999 -0.00292969c32 0 57.333 3.83301 76 11.5s32.667 21.667 42 42s15.333 42.833 18 67.5s4 59.334 4 104.001c0 39.333 -1.5 69.833 -4.5 91.5s-9.66699 41.334 -20 59.001s-25.666 29.834 -45.999 36.501
s-47.833 10 -82.5 10h-113v-422z" />
    <glyph glyph-name="uni0413" unicode="&#x413;" horiz-adv-x="563" 
d="M547 860l1 -231l-65 -1v207h-271v-810h88v-25h-249v25h78v810h-78v25h496z" />
    <glyph glyph-name="uni0414" unicode="&#x414;" horiz-adv-x="712" 
d="M707 25v-226h-62l-5 201h-571l-4 -201h-60v226h96l226 835h84l187 -835h109zM511 25l-163 763h-2l-205 -763h370z" />
    <glyph glyph-name="uni0415" unicode="&#x415;" 
d="M421 433h-209v-408h280v174h65v-199h-506v25h78v810h-78v25h502v-196h-65v171h-276v-372h209v92h43v-224h-43v102z" />
    <glyph glyph-name="uni0416" unicode="&#x416;" horiz-adv-x="982" 
d="M942 24l34.999 -0.000976562v-24h-61h-19c-20 0 -34.167 0.166992 -42.5 0.5s-18.333 1.83301 -30 4.5s-19.5 6.66699 -23.5 12s-8.66699 13.5 -14 24.5s-9.16602 24.333 -11.499 40s-4.16602 35.5 -5.49902 59.5l-13 169c-3.33301 42.667 -16.333 74.167 -39 94.5
s-59.334 30.5 -110.001 30.5h-79v-410h108v-25h-293v25h108v410h-78c-50.667 0 -87.334 -10.167 -110.001 -30.5s-35.667 -51.833 -39 -94.5l-13 -169c-1.33301 -20.667 -3.33301 -38.167 -6 -52.5l-7 -37.5c-2 -10.667 -6.16699 -19.167 -12.5 -25.5l-15 -15
c-3.66699 -3.66699 -11.334 -6.16699 -23.001 -7.5s-20.667 -2.16602 -27 -2.49902s-18.5 -0.5 -36.5 -0.5h-19h-61v24h35c32 0 53.333 8.33301 64 25s17.667 46 21 88l12 154c7.33301 96.667 63.666 149 168.999 157l-1 1c-46.667 6.66699 -79.5 26 -98.5 58
s-33.833 91.667 -44.5 179l-20 149h-87v25h234v-25h-72l18 -141l9.5 -69.5c2.33301 -16.333 5.33301 -34.166 9 -53.499s7.66699 -33.833 12 -43.5s9.83301 -19.834 16.5 -30.501s14.334 -18.167 23.001 -22.5s18.834 -7.83301 30.501 -10.5s25.5 -4 41.5 -4h75v375h-100v25
h277v-25h-100v-375h76c16 0 29.833 1.33301 41.5 4s21.834 6.16699 30.501 10.5s16.334 11.833 23.001 22.5s12.167 20.834 16.5 30.501s8.33301 24.167 12 43.5s6.66699 37.166 9 53.499l9.5 69.5l18 141h-72v25h234v-25h-87l-20 -149
c-10.667 -87.333 -25.5 -147 -44.5 -179s-51.833 -51.333 -98.5 -58l-1 -1c105.333 -8 161.666 -60.333 168.999 -157l12 -154c3.33301 -42 10.333 -71.333 21 -88s32 -25 64 -25z" />
    <glyph glyph-name="uni0417" unicode="&#x417;" horiz-adv-x="580" 
d="M484 649c0 -62.667 -9.49902 -110.665 -28.499 -143.998s-52.5 -54.333 -100.5 -63c58 -8.66699 95.833 -30 113.5 -64s26.5 -87.333 26.5 -160c0 -84 -18.333 -143 -55 -177s-99.667 -50.667 -189 -50c-42.667 0 -78 6.5 -106 19.5s-48.167 31 -60.5 54
s-20.666 44.833 -24.999 65.5s-6.5 44.667 -6.5 72v40h71v-39c0 -24.667 0.666992 -45.5 2 -62.5s4.66602 -34.167 9.99902 -51.5s12.5 -31 21.5 -41s21.333 -18.167 37 -24.5s34.834 -9.5 57.501 -9.5c34.667 0 62.5 4.16699 83.5 12.5s36.833 22.333 47.5 42
s17.5 41.167 20.5 64.5s4.5 55 4.5 95c0 75.333 -8.5 128.166 -25.5 158.499s-51.833 45.5 -104.5 45.5h-77v25h77c48 0 80 16.667 96 50s24 83.666 24 150.999c0 68 -8 115.833 -24 143.5s-48.333 41.5 -97 41.5s-83.334 -15.667 -104.001 -47s-32.667 -82 -36 -152h-64
v223h53l7 -96c4.66699 22 13.5 40.5 26.5 55.5s28 25.167 45 30.5s30.667 8.83301 41 10.5s20.166 2.5 29.499 2.5c80.667 0 135.667 -16 165 -48s44 -89.667 44 -173z" />
    <glyph glyph-name="uni0418" unicode="&#x418;" horiz-adv-x="744" 
d="M121 835h-70v25h232v-25h-79v-750h3l294 775h192v-25h-79v-810h79v-25h-240v25h78v803h-2l-314 -828h-94v835z" />
    <glyph glyph-name="uni0419" unicode="&#x419;" horiz-adv-x="744" 
d="M369 926c-26.667 -0.666992 -51.166 5.99902 -73.499 19.999s-33.5 31.667 -33.5 53c0 14.667 4.66699 26.667 14 36s20.333 14 33 14c14 0 25.333 -4 34 -12s13 -19 13 -33c0 -12 -3.83301 -22.167 -11.5 -30.5s-17.5 -13.166 -29.5 -14.499
c16.667 -11.333 35 -17 55 -17c30.667 0 56.167 9.33301 76.5 28s31.166 41 32.499 67h18c-1.33301 -28.667 -13.5 -54.167 -36.5 -76.5s-53.5 -33.833 -91.5 -34.5zM693.001 834.999h-79v-810h79v-25h-240v25h78v803h-2l-314 -828h-94v835h-70v25h232v-25h-79v-750h3
l294 775h192v-25z" />
    <glyph glyph-name="uni041A" unicode="&#x41a;" horiz-adv-x="678" 
d="M638 25l34.9971 0.000976562v-25h-61h-19c-19.333 0 -33.166 0.166992 -41.499 0.5s-18.333 1.83301 -30 4.5s-19.5 6.66699 -23.5 12s-8.83301 13.5 -14.5 24.5s-9.5 24.333 -11.5 40s-4 35.5 -6 59.5l-12 170c-3.33301 42 -17.166 72.833 -41.499 92.5
s-65.166 29.5 -122.499 29.5h-78v-408h108v-25h-269v25h78v810h-78v25h255v-25h-94v-372h76c30.667 0 55.167 3.5 73.5 10.5s33.166 21 44.499 42s19.333 43.667 24 68s10 61.166 16 110.499l16 141h-68v25h230v-25h-86l-19 -149c-10 -86.667 -24.833 -146 -44.5 -178
s-53.5 -51.667 -101.5 -59c104.667 -8 160.667 -60.667 168 -158l13 -154c4 -45.333 10.833 -75.333 20.5 -90s30.834 -22 63.501 -22z" />
    <glyph glyph-name="uni041B" unicode="&#x41b;" horiz-adv-x="621" 
d="M555 25h61v-25h-255v25h106l-168 763h-3l-195 -763h84v-25h-180v25h56l216 835h85z" />
    <glyph glyph-name="uni041C" unicode="&#x41c;" horiz-adv-x="902" 
d="M773 25h78v-25h-239v25h78v801h-4l-220 -826h-79l-214 826h-6v-801h88v-25h-204v25h78v810h-78v25h196l200 -776h3l205 776h196v-25h-78v-810z" />
    <glyph glyph-name="uni041D" unicode="&#x41d;" horiz-adv-x="741" 
d="M690 835h-78v-810h78v-25h-239v25h78v401h-317v-401h78v-25h-239v25h78v810h-78v25h239v-25h-78v-375h317v375h-78v25h239v-25z" />
    <glyph glyph-name="uni041E" unicode="&#x41e;" horiz-adv-x="692" 
d="M346 -11c-70 0 -123.002 12.333 -159.002 37s-62 70 -78 136c-18 72.667 -26.333 162 -25 268c-1.33301 105.333 7 194.333 25 267c16.667 66 42.834 111.333 78.501 136s88.5 37 158.5 37s122.833 -12.333 158.5 -37s61.834 -70 78.501 -136c16 -76 24 -165 24 -267
c0 -112.667 -8 -202 -24 -268s-42 -111.333 -78 -136s-89 -37 -159 -37zM345.998 16c49.333 0 85.5 9.83301 108.5 29.5s39.167 60.5 48.5 122.5c10 63.333 15 150.666 15 261.999c0 110.667 -5 197.667 -15 261c-9.33301 62 -25.5 102.833 -48.5 122.5
s-59.167 29.5 -108.5 29.5s-85.5 -9.83301 -108.5 -29.5s-39.167 -60.5 -48.5 -122.5c-10 -63.333 -15 -150.333 -15 -261c0 -111.333 5 -198.666 15 -261.999c9.33301 -62 25.5 -102.833 48.5 -122.5s59.167 -29.5 108.5 -29.5z" />
    <glyph glyph-name="uni041F" unicode="&#x41f;" horiz-adv-x="732" 
d="M602 835v-810h79v-25h-240v25h78v810h-307v-810h79v-25h-240v25h78v810h-78v25h630v-25h-79z" />
    <glyph glyph-name="uni0420" unicode="&#x420;" horiz-adv-x="634" 
d="M51 860h243.999c78.667 0 124.334 -0.666992 137.001 -2c50 -6.66699 84.333 -28.667 103 -66c16 -33.333 24 -84 24 -152c0 -38.667 -0.666992 -69 -2 -91s-4.33301 -44.333 -9 -67s-11.5 -39.5 -20.5 -50.5s-21.833 -21.167 -38.5 -30.5s-36.667 -15.5 -60 -18.5
s-52.333 -4.5 -87 -4.5h-130v-353h120v-25h-281v25h78v810h-78v25zM211.999 403l120 -0.000976562c32.667 0 58 3 76 9s32 19 42 39s16.167 43.333 18.5 70s3.5 66.334 3.5 119.001c0 84 -9 137.5 -27 160.5s-60 34.5 -126 34.5h-108z" />
    <glyph glyph-name="uni0421" unicode="&#x421;" horiz-adv-x="617" 
d="M485 240l79.9941 -0.00195312v-40c0 -20 -1.5 -38.667 -4.5 -56s-9 -35.833 -18 -55.5s-21 -36.5 -36 -50.5s-35.833 -25.5 -62.5 -34.5s-57.667 -13.5 -93 -13.5c-27.333 0 -48.666 0.666992 -63.999 2s-33.5 5 -54.5 11s-38 14.833 -51 26.5s-26 28.667 -39 51
s-23.833 49.833 -32.5 82.5c-16.667 64.667 -25 149.667 -25 255c0 110 8 200.667 24 272c15.333 68 39.833 114.833 73.5 140.5s84.834 38.5 153.501 38.5c87.333 0 140.333 -30.667 159 -92l5 88h56v-223h-65c-2 74 -14 125.333 -36 154s-62 43 -120 43
c-49.333 0 -84 -10.667 -104 -32s-34.667 -62.666 -44 -123.999c-10 -71.333 -15 -167 -15 -287c0 -104.667 5 -183 15 -235c6.66699 -32.667 14.167 -58.5 22.5 -77.5s19.833 -33.167 34.5 -42.5s29.334 -15.166 44.001 -17.499s35.667 -3.5 63 -3.5
c24.667 0 45.334 2.5 62.001 7.5s29.834 11.5 39.501 19.5s16.834 20.333 21.501 37s7.66699 33.167 9 49.5s2 38.5 2 66.5v40z" />
    <glyph glyph-name="uni0422" unicode="&#x422;" horiz-adv-x="591" 
d="M511 662v173h-174v-810h142v-25h-367v25h142v810h-174v-173h-65v198h561v-198h-65z" />
    <glyph glyph-name="uni0423" unicode="&#x423;" horiz-adv-x="640" 
d="M549 860l-1.00293 -646.002c0 -79.333 -18.5 -136 -55.5 -170s-95.167 -51 -174.5 -51c-135.333 0 -203.666 57 -204.999 171v29h68v-27c0 -52 9.66699 -89.333 29 -112s55.666 -34 108.999 -34c16 0 30.667 1.16699 44 3.5s24.833 5.83301 34.5 10.5
s18.334 10.334 26.001 17.001s14 13.834 19 21.501s9.33301 16.167 13 25.5s6.33398 19.166 8.00098 29.499s3.16699 20.833 4.5 31.5s2 21.667 2 33v33.5v33.5l1 171h-1c-12 -41.333 -31.167 -70.833 -57.5 -88.5s-64.5 -26.5 -114.5 -26.5
c-65.333 0 -112.666 15.5 -141.999 46.5s-44 71.5 -44 121.5v352h-77v25h160v-346c0 -114 38.667 -171 116 -171c56 0 95.833 17.333 119.5 52s35.5 85.334 35.5 152.001v288h-81v25h164z" />
    <glyph glyph-name="uni0424" unicode="&#x424;" horiz-adv-x="911" 
d="M807 677c12.667 -55.333 19.002 -145.334 19.002 -270.001c-2.66699 -112 -9.33398 -186 -20.001 -222c-21.333 -72.667 -54.833 -121.167 -100.5 -145.5s-116.167 -37.166 -211.5 -38.499v-122h79v-25h-234v25h78v122c-98 2 -169.333 15.333 -214 40
s-77.334 72.667 -98.001 144c-12 44 -18.667 126 -20 246c0 113.333 6.33301 195.333 19 246c11.333 43.333 26.5 77 45.5 101s50 43.333 93 58s101.167 23 174.5 25v95h-78v25h234v-25h-79v-95c95.333 -2 167.333 -15.833 216 -41.5s81 -73.167 97 -142.5zM184.002 186.999
c8.66699 -54 29.501 -93.166 62.501 -117.499s89.833 -37.833 170.5 -40.5v805c-59.333 -1.33301 -104.5 -7.33301 -135.5 -18s-53 -25.834 -66 -45.501s-23.5 -49.167 -31.5 -88.5c-4.66699 -23.333 -8.33398 -64.5 -11.001 -123.5s-4 -98.833 -4 -119.5
c1.33301 -113.333 6.33301 -197.333 15 -252zM727.003 187c7.33301 44 12.333 123.334 15 238.001c0 122 -5 207.667 -15 257c-8 40 -18.5 69.667 -31.5 89s-35 34.166 -66 44.499s-76.167 16.5 -135.5 18.5v-805c80.667 2.66699 137.5 16.167 170.5 40.5
s53.833 63.5 62.5 117.5z" />
    <glyph glyph-name="uni0425" unicode="&#x425;" horiz-adv-x="671" 
d="M581 25h85v-25h-274v25h99l-182 369l-189 -369h96v-25h-211v25h73l211 410l-198 400h-79v25h291v-25h-122l159 -323l165 323h-80v25h203v-25h-82l-186 -363z" />
    <glyph glyph-name="uni0426" unicode="&#x426;" horiz-adv-x="762" 
d="M711 25v-226l-58 -1l-6 202h-596v25h78v810h-78v25h240v-25h-79v-810h307v810h-78v25h240v-25h-79v-810h109z" />
    <glyph glyph-name="uni0427" unicode="&#x427;" horiz-adv-x="649" 
d="M598 835h-78.001v-810h78v-25h-269v25h108v384c-14 -10.667 -35.833 -21.167 -65.5 -31.5s-61.5 -15.5 -95.5 -15.5c-59.333 0 -106.166 15 -140.499 45s-51.5 82 -51.5 156l-1 272h-78v25h236v-25h-75l1 -287c0 -56 9 -96.5 27 -121.5s46.667 -37.5 86 -37.5
c64.667 0 117 19.333 157 58v388h-100v25h261v-25z" />
    <glyph glyph-name="uni0428" unicode="&#x428;" horiz-adv-x="1040" 
d="M910 835v-810h79v-25h-938v25h78v810h-78v25h240v-25h-79v-810h266v810h-78v25h240v-25h-79v-810h266v810h-78v25h240v-25h-79z" />
    <glyph glyph-name="uni0429" unicode="&#x429;" horiz-adv-x="1067" 
d="M1018 25v-226l-58 -1l-6 202h-903v25h78v810h-78v25h240v-25h-79v-810h266v810h-78v25h240v-25h-79v-810h266v810h-78v25h240v-25h-79v-810h108z" />
    <glyph glyph-name="uni042A" unicode="&#x42a;" horiz-adv-x="739" 
d="M306 511l130.999 -0.00195312c29.333 0 54.666 -1.66699 75.999 -5s40 -7.83301 56 -13.5s29 -14.5 39 -26.5s18.167 -24.333 24.5 -37s11 -30.5 14 -53.5s5 -45.167 6 -66.5s1.5 -49.333 1.5 -84c0 -44 -4.16699 -80.667 -12.5 -110s-17.666 -51.666 -27.999 -66.999
s-28.166 -26.666 -53.499 -33.999s-47 -11.5 -65 -12.5s-47 -1.5 -87 -1.5h-18h-245v25h78v810h-144l1 -190l-65 -1v216h384v-25h-93v-324zM305.999 24.998l108.001 0.000976562c63.333 0 104.666 14.667 123.999 44s29 85.333 29 168
c0 41.333 -0.833008 74.166 -2.5 98.499s-5 47.5 -10 69.5s-12.667 38 -23 48s-23.833 18 -40.5 24s-38 9 -64 9h-121v-461z" />
    <glyph glyph-name="uni042B" unicode="&#x42b;" horiz-adv-x="856" 
d="M212 511l130.999 -0.00195312c29.333 0 54.666 -1.66699 75.999 -5s40 -7.83301 56 -13.5s29 -14.5 39 -26.5s18.167 -24.333 24.5 -37s11 -30.5 14 -53.5s5 -45.167 6 -66.5s1.5 -49.333 1.5 -84c0 -44 -4.16699 -80.667 -12.5 -110s-17.666 -51.666 -27.999 -66.999
s-28.166 -26.666 -53.499 -33.999s-47 -11.5 -65 -12.5s-47 -1.5 -87 -1.5h-18h-245v25h78v810h-78v25h253v-25h-92v-324zM813.999 834.998h-79v-810h79v-25h-240v25h78v810h-78v25h240v-25zM211.999 24.998l107.999 0.000976562c64.667 0 106.334 13.833 125.001 41.5
s28 84.5 28 170.5c0 41.333 -0.833008 74.166 -2.5 98.499s-5 47.5 -10 69.5s-12.667 38 -23 48s-23.833 18 -40.5 24s-38 9 -64 9h-121v-461z" />
    <glyph glyph-name="uni042C" unicode="&#x42c;" horiz-adv-x="645" 
d="M212 511l130.999 -0.00195312c29.333 0 54.666 -1.66699 75.999 -5s40 -7.83301 56 -13.5s29 -14.5 39 -26.5s18.167 -24.333 24.5 -37s11 -30.5 14 -53.5s5 -45.167 6 -66.5s1.5 -49.333 1.5 -84c0 -44 -4.16699 -80.667 -12.5 -110s-17.666 -51.666 -27.999 -66.999
s-28.166 -26.666 -53.499 -33.999s-47 -11.5 -65 -12.5s-47 -1.5 -87 -1.5h-18h-245v25h78v810h-78v25h253v-25h-92v-324zM211.999 24.998l107.999 0.000976562c64.667 0 106.334 13.833 125.001 41.5s28 84.5 28 170.5c0 41.333 -0.833008 74.166 -2.5 98.499
s-5 47.5 -10 69.5s-12.667 38 -23 48s-23.833 18 -40.5 24s-38 9 -64 9h-121v-461z" />
    <glyph glyph-name="uni042D" unicode="&#x42d;" horiz-adv-x="652" 
d="M543 697c16 -71.333 24.0049 -163.332 24.0049 -275.999c0 -107.333 -8.33301 -193.333 -25 -258c-8.66699 -32.667 -19.5 -60.167 -32.5 -82.5s-26.167 -39.333 -39.5 -51s-31 -20.5 -53 -26.5s-41.5 -9.66699 -58.5 -11s-40.167 -2 -69.5 -2
c-35.333 0 -66 4.66699 -92 14s-46 20.666 -60 33.999s-25.167 30.166 -33.5 50.499s-13.5 38.833 -15.5 55.5s-3 35.334 -3 56.001v40h65v-43c0 -59.333 8.83301 -103.666 26.5 -132.999s55.167 -45 112.5 -47c52 -1.33301 91.333 7.16699 118 25.5s46 56.833 58 115.5
c10 46.667 15 126 15 238v33c-15.333 14 -32 21 -50 21c-20 0 -44 -9.16699 -72 -27.5s-53 -27.5 -75 -27.5c-28 0 -49.833 5.33301 -65.5 16s-31.834 28 -48.501 52l15 13c15.333 -19.333 33.333 -29 54 -29c17.333 0 43.5 8 78.5 24s63.833 24 86.5 24
c33.333 0 58.666 -10.667 75.999 -32c-1.33301 100.667 -6 179 -14 235c-8.66699 57.333 -23 95.666 -43 114.999s-55 29 -105 29c-58 0 -97.833 -14.833 -119.5 -44.5s-33.834 -81.5 -36.501 -155.5h-65v223h56l6 -103c12 71.333 64.667 107 158 107
c69.333 0 120.666 -12 153.999 -36s57.666 -69.333 72.999 -136z" />
    <glyph glyph-name="uni042E" unicode="&#x42e;" horiz-adv-x="967" 
d="M859 697c15.333 -69.333 23 -159.667 23 -271s-8 -199 -24 -263c-11.333 -40 -25 -72.333 -41 -97s-35.5 -42.334 -58.5 -53.001s-43.833 -17.334 -62.5 -20.001s-43.334 -4 -74.001 -4s-55.334 1.33301 -74.001 4s-39.5 9.33398 -62.5 20.001s-42.5 28.334 -58.5 53.001
s-29.667 57 -41 97c-16 61.333 -24 153.333 -24 276h-151v-414h79v-25h-239v25h78v810h-78v25h239v-25h-79v-371h151c2 95.333 9.66699 173 23 233c16.667 66 42.834 111.333 78.501 136s88.5 37 158.5 37s122.833 -12.333 158.5 -37s61.834 -70 78.501 -136zM779 169.999
c10 75.333 15.002 165 15.002 269c0 98 -5 181.667 -15 251c-9.33301 63.333 -25.333 104.666 -48 123.999s-59 29 -109 29s-86.333 -9.66699 -109 -29s-38.667 -60.666 -48 -123.999c-10 -69.333 -15 -153 -15 -251c0 -104 5 -193.667 15 -269
c8.66699 -63.333 24.667 -104.833 48 -124.5s59.666 -29.5 108.999 -29.5s85.666 9.83301 108.999 29.5s39.333 61.167 48 124.5z" />
    <glyph glyph-name="uni042F" unicode="&#x42f;" horiz-adv-x="674" 
d="M623 835h-77.998v-810h78v-25h-269v25h108l-1 414h-86c-13.333 0 -26.5 -1.33301 -39.5 -4s-28.333 -7.83398 -46 -15.501s-32.5 -21 -44.5 -40s-19 -42.5 -21 -70.5l-12 -169c-1.33301 -18 -2.66602 -33.5 -3.99902 -46.5s-3.83301 -24.667 -7.5 -35
s-6.33398 -18.666 -8.00098 -24.999s-6 -11.833 -13 -16.5l-15 -10c-3 -2 -10.333 -3.66699 -22 -5s-20 -2 -25 -2h-32.5h-19h-61v25h35c32 0 53.167 8.16699 63.5 24.5s17.166 45.166 20.499 86.499l13 153c2.66699 32.667 10 60.334 22 83.001s26.667 39 44 49
s32.666 17 45.999 21s27 6.33301 41 7v1c-76 9.33301 -126.5 29.666 -151.5 60.999s-37.5 83 -37.5 155c0 24 0.833008 43.667 2.5 59s6.16699 32.5 13.5 51.5s18 33.833 32 44.5s34 19.834 60 27.501s57.667 11.5 95 11.5h319v-25zM354.002 464l107.001 0.00195312v371
h-121c-24.667 0 -44.834 -0.833008 -60.501 -2.5s-29.5 -5.33398 -41.5 -11.001s-21 -12.334 -27 -20.001s-11 -19.167 -15 -34.5s-6.5 -31.5 -7.5 -48.5s-1.5 -39.833 -1.5 -68.5c0 -70 12.833 -118.5 38.5 -145.5s68.5 -40.5 128.5 -40.5z" />
    <glyph glyph-name="uni0430" unicode="&#x430;" horiz-adv-x="509" 
d="M456 25l30.001 -0.00292969v-25h-74c-30.667 0 -50.334 4 -59.001 12s-12.667 25.667 -12 53c-19.333 -47.333 -64.333 -71 -135 -71c-32.667 0 -59.834 3.83301 -81.501 11.5s-37.5 18.834 -47.5 33.501s-16.667 29.334 -20 44.001s-5 32 -5 52c0 44.667 10 77 30 97
s59 34 117 42c24.667 4 55 6 91 6c22 0 38.333 -0.333008 49 -1v104c0 68 -30 102 -90 102c-18.667 0 -34.667 -2.33301 -48 -7s-23.166 -10.334 -29.499 -17.001s-11.333 -14.667 -15 -24s-5.66699 -17.166 -6 -23.499s-0.5 -13.5 -0.5 -21.5l1 -28h-72l-1 23
c-2 46 12 77.667 42 95s72 26 126 26c54.667 0 96 -9.16699 124 -27.5s42 -53.166 42 -104.499v-304c0 -17.333 3.16699 -29.5 9.5 -36.5s17.833 -10.5 34.5 -10.5zM339.001 153.997l-0.000976562 101.001c-18 2 -36 3 -54 3c-20 0 -38 -1.33301 -54 -4
c-44 -7.33301 -72.333 -20.833 -85 -40.5s-19 -47.167 -19 -82.5c0 -14 1 -26.167 3 -36.5s6 -22 12 -35s16.333 -23 31 -30s33.334 -10.5 56.001 -10.5c34.667 0 61.667 12.167 81 36.5s29 57.166 29 98.499z" />
    <glyph glyph-name="uni0431" unicode="&#x431;" horiz-adv-x="545" 
d="M478 358c5.33301 -30 8 -66.665 8 -109.998c0 -44 -2.66699 -81 -8 -111c-7.33301 -47.333 -25.833 -83 -55.5 -107s-77.5 -36 -143.5 -36s-113.5 12 -142.5 36s-47.167 59.667 -54.5 107c-5.33301 34 -8 69.667 -8 107c0 18.667 -0.666992 55.334 -2 110.001
s-1.66602 93.667 -0.999023 117c2.66699 99.333 22.167 170.666 58.5 213.999s98.5 75.666 186.5 96.999c42.667 10.667 71.667 20.667 87 30s23.666 25.333 24.999 48h26c-0.666992 -52 -15 -88.833 -43 -110.5s-73 -40.5 -135 -56.5
c-66 -17.333 -110.833 -42.166 -134.5 -74.499s-37.5 -80.5 -41.5 -144.5c-1.33301 -24.667 -2 -40.334 -2 -47.001s0.5 -18.834 1.5 -36.501s1.5 -31.5 1.5 -41.5c10 49.333 28.833 87 56.5 113s68.167 39 121.5 39c64.667 0 112 -12 142 -36s49 -59.667 57 -107z
M405 136.002c4.66699 37.333 7.00098 74.666 7.00098 111.999c0 36.667 -2.33301 73.667 -7 111c-2 18 -4.66699 32.833 -8 44.5s-9.16602 23.834 -17.499 36.501s-20.833 22.167 -37.5 28.5s-37.667 9.5 -63 9.5c-73.333 0 -114.666 -39.667 -123.999 -119
c-4.66699 -46.667 -7 -83.667 -7 -111c0 -28 2.33301 -65.333 7 -112c2 -18 4.66699 -32.833 8 -44.5s9.16602 -23.834 17.499 -36.501s20.666 -22.167 36.999 -28.5s36.833 -9.5 61.5 -9.5c25.333 0 46.333 3.16699 63 9.5s29.167 15.833 37.5 28.5
s14.166 24.834 17.499 36.501s6 26.5 8 44.5z" />
    <glyph glyph-name="uni0432" unicode="&#x432;" horiz-adv-x="529" 
d="M255 860c74 0 124.334 -14.667 151.001 -44s40 -77.333 40 -144c0 -70.667 -9.5 -122.834 -28.5 -156.501s-56.833 -53.834 -113.5 -60.501c31.333 0 57.666 -4.33301 78.999 -13s37.666 -19 48.999 -31s20 -29.333 26 -52s9.5 -42.667 10.5 -60s1.5 -40.666 1.5 -69.999
c0 -91.333 -13.5 -153.166 -40.5 -185.499s-81.5 -48.5 -163.5 -48.5c-24 0 -42.667 0.333008 -56 1s-29.5 3.33398 -48.5 8.00098s-33.667 11.5 -44 20.5s-19.666 22.167 -27.999 39.5s-13.5 38.666 -15.5 63.999c-2 30.667 -3 215 -3 553c0 65.333 16 111.5 48 138.5
s77.333 40.5 136 40.5zM144.001 680l0.999023 -218.001h86c24 0 44.667 3.33301 62 10s31 15.334 41 26.001s17.833 25.167 23.5 43.5s9.33398 37 11.001 56s2.5 42.167 2.5 69.5c0 62.667 -8 106.667 -24 132s-47 38 -93 38c-24.667 0 -44.667 -3.66699 -60 -11
s-26.5 -18.833 -33.5 -34.5s-11.5 -31.5 -13.5 -47.5s-3 -37.333 -3 -64zM145 436.999l2 -279.001c0.666992 -55.333 10.334 -92.5 29.001 -111.5s48.667 -28.5 90 -28.5c30 0 53.667 3.5 71 10.5s30.166 20.167 38.499 39.5s13.5 39.833 15.5 61.5s3 53.834 3 96.501
c0 40 -1.66699 71.5 -5 94.5s-10.333 44.167 -21 63.5s-27 33 -49 41s-51.333 12 -88 12h-86z" />
    <glyph glyph-name="uni0433" unicode="&#x433;" horiz-adv-x="476" 
d="M428 158l0.000976562 -23.999c0 -42.667 -12.833 -76.667 -38.5 -102s-74.5 -38 -146.5 -38c-62.667 0 -108.5 10.833 -137.5 32.5s-43.5 54.834 -43.5 99.501c0 39.333 13.5 68.666 40.5 87.999s66.833 36 119.5 50c46 12 76 27.833 90 47.5s21 44.834 21 75.501
c0 64 -25.667 96 -77 96c-75.333 0 -114 -41 -116 -123h-62v140h47l4 -96c13.333 68 56.333 102 129 102c98 0 147 -37.667 147 -113c0 -38.667 -9.5 -69.167 -28.5 -91.5s-59.5 -41.5 -121.5 -57.5c-46.667 -12.667 -77.834 -27.834 -93.501 -45.501
s-23.834 -42.5 -24.501 -74.5c-1.33301 -72 35 -107.667 109 -107c42.667 0.666992 72.334 9.16699 89.001 25.5s25 46.166 25 89.499v26h68z" />
    <glyph glyph-name="uni0434" unicode="&#x434;" horiz-adv-x="549" 
d="M467 500l-0.00195312 -543.998c0 -77.333 -14.5 -130.833 -43.5 -160.5s-80.167 -44.5 -153.5 -44.5c-38.667 0 -71 3.66699 -97 11s-45.167 18.166 -57.5 32.499s-20.833 29 -25.5 44s-7 32.833 -7 53.5v25h67v-28c0.666992 -42.667 10 -72.5 28 -89.5
s47.667 -25.5 89 -25.5c50.667 0 84.334 12 101.001 36s25.667 64.333 27 121l1 148h-1c-21.333 -52.667 -68.666 -79 -141.999 -79c-34 0 -62.833 3.83301 -86.5 11.5s-41.667 19.167 -54 34.5s-21.333 29.666 -27 42.999s-10.834 30.333 -15.501 51
c-6.66699 29.333 -10 64.333 -10 105s3.66699 80.334 11 119.001c8.66699 47.333 26.834 82.666 54.501 105.999s69.167 35 124.5 35c87.333 0 137 -37 149 -111l9 106h59zM388.998 156.002c3.33301 33.333 4.99902 65 4.99902 95c0 36.667 -2 72 -6 106
c-10.667 83.333 -56.667 125 -138 125c-38 0 -63.833 -9.33301 -77.5 -28s-23.5 -48.334 -29.5 -89.001c-4.66699 -31.333 -7 -68.666 -7 -111.999c0 -49.333 2 -87.333 6 -114c6 -41.333 17 -71 33 -89s43.667 -27 83 -27c78.667 0 122.334 44.333 131.001 133z" />
    <glyph glyph-name="uni0435" unicode="&#x435;" horiz-adv-x="493" 
d="M370 157l63.999 0.000976562c0 -56.667 -12.833 -98.167 -38.5 -124.5s-69.167 -39.5 -130.5 -39.5s-109.5 11.667 -144.5 35s-54.5 66 -58.5 128c-2 30.667 -3 62 -3 94s1 63.333 3 94c4 62 22.833 104.667 56.5 128s79.167 35 136.5 35c52 0 94 -11.833 126 -35.5
s50 -66.167 54 -127.5v-98h-301c0 -28 1 -60 3 -96c3.33301 -46.667 14.333 -80.667 33 -102s50.334 -32 95.001 -32c42 0 70 10.667 84 32s21 57.666 21 108.999zM136.999 350.001c-2 -26.667 -3 -52.999 -3 -78.999h236c0 33.333 -0.333008 58.666 -1 75.999
c-0.666992 13.333 -1.5 24.5 -2.5 33.5s-3.66699 20.667 -8 35s-10.166 26 -17.499 35s-18.333 16.833 -33 23.5s-32.334 10 -53.001 10c-40 0 -68.833 -10.667 -86.5 -32s-28.167 -55.333 -31.5 -102z" />
    <glyph glyph-name="uni0436" unicode="&#x436;" horiz-adv-x="748" 
d="M704 26h20.9941v-26h-54h-12c-18 -0 -30.333 0.333008 -37 1s-13.667 3.66699 -21 9s-12.166 13.5 -14.499 24.5s-4.16602 27.167 -5.49902 48.5l-7 99c-2 27.333 -9.83301 44.666 -23.5 51.999s-45.167 11.333 -94.5 12h-49v-221h70v-25h-207v25h70v221h-48
c-49.333 -0.666992 -80.833 -4.66699 -94.5 -12s-21.5 -24.666 -23.5 -51.999l-7 -99c-1.33301 -21.333 -3.16602 -37.5 -5.49902 -48.5s-7.16602 -19.167 -14.499 -24.5s-14.333 -8.33301 -21 -9s-19 -1 -37 -1h-12h-54v26h21c18.667 0 31.167 4 37.5 12
s10.166 22.333 11.499 43l7 89c4.66699 56.667 42 87.667 112 93h-1c-31.333 4 -52.666 15 -63.999 33s-20.666 53 -27.999 105l-12 74h-55v25h158v-25h-42l9 -69c8 -57.333 18 -94.166 30 -110.499s41 -24.5 87 -24.5h46v564h-70v25c54 0 99.667 2.33301 137 7v-596h47
c46 0 75 8.16699 87 24.5s22 53.166 30 110.499l9 69h-44v25h158v-25h-53l-12 -74c-7.33301 -52 -16.666 -87 -27.999 -105s-32.666 -29 -63.999 -33h-1c70 -5.33301 107.333 -36.333 112 -93l7 -89c1.33301 -20.667 5.16602 -35 11.499 -43s18.833 -12 37.5 -12z" />
    <glyph glyph-name="uni0437" unicode="&#x437;" horiz-adv-x="428" 
d="M389 -47c0 -72.667 -14.332 -124.167 -42.999 -154.5s-78 -45.5 -148 -45.5c-69.333 0 -116.666 12.833 -141.999 38.5s-38 59.834 -38 102.501v33h70v-36c0 -42.667 8.5 -72.334 25.5 -89.001s45.167 -25.334 84.5 -26.001c46 -0.666992 76.667 11 92 35
s23 69.667 23 137c0 66 -9.66699 111.333 -29 136s-61 37 -125 37h-52v25h52c58.667 0 96.167 11 112.5 33s23.833 71 22.5 147c-0.666992 62.667 -6.83398 104.667 -18.501 126s-33.5 32 -65.5 32c-40 0 -68.5 -10.667 -85.5 -32s-26.5 -55.666 -28.5 -102.999h-62v151h47
l5 -96c8.66699 68.667 50 103 124 103c60 0 101 -12.333 123 -37s34 -72.667 36 -144c1.33301 -60.667 -6.83398 -106.5 -24.501 -137.5s-48.5 -48.833 -92.5 -53.5c53.333 -2 89.5 -18.667 108.5 -50s28.5 -75.333 28.5 -132z" />
    <glyph glyph-name="uni0438" unicode="&#x438;" horiz-adv-x="575" 
d="M509 25l26.002 -0.00195312v-25h-77c-30.667 0 -49.334 4.83301 -56.001 14.5s-9.33398 33.5 -8.00098 71.5c-22 -61.333 -74.667 -92 -158 -92c-49.333 0 -85.5 11.5 -108.5 34.5s-34.5 60.5 -34.5 112.5v334h-70v25c58 0 105.667 2.33301 143 7v-369
c0 -16 1 -29.667 3 -41s6.16699 -23.666 12.5 -36.999s16.833 -23.666 31.5 -30.999s33 -11 55 -11c35.333 0 64.833 15.167 88.5 45.5s35.5 70.833 35.5 121.5v290h-70v25c58 0 105.667 2.33301 143 7v-436c0 -19.333 2.83301 -31.833 8.5 -37.5s17.5 -8.5 35.5 -8.5z" />
    <glyph glyph-name="uni0439" unicode="&#x439;" horiz-adv-x="558" 
d="M267 588c-26.667 -0.666992 -51.166 5.99902 -73.499 19.999s-33.5 31.667 -33.5 53c0 14.667 4.66699 26.667 14 36s20.333 14 33 14c14 0 25.333 -4 34 -12s13 -18.667 13 -32c0 -12.667 -3.83301 -23.167 -11.5 -31.5s-17.167 -13.166 -28.5 -14.499
c14.667 -10.667 32.667 -16 54 -16c30.667 0 56.167 9.16699 76.5 27.5s31.166 40.5 32.499 66.5h18c-1.33301 -28.667 -13.5 -54.167 -36.5 -76.5s-53.5 -33.833 -91.5 -34.5zM509.001 24.999l26.002 -0.00195312v-25h-77c-30.667 0 -49.334 4.83301 -56.001 14.5
s-9.33398 33.5 -8.00098 71.5c-22 -61.333 -74.667 -92 -158 -92c-49.333 0 -85.5 11.5 -108.5 34.5s-34.5 60.5 -34.5 112.5v334h-70v25c58 0 105.667 2.33301 143 7v-369c0 -16 1 -29.667 3 -41s6.16699 -23.666 12.5 -36.999s16.833 -23.666 31.5 -30.999s33 -11 55 -11
c35.333 0 64.833 15.167 88.5 45.5s35.5 70.833 35.5 121.5v290h-70v25c58 0 105.667 2.33301 143 7v-436c0 -19.333 2.83301 -31.833 8.5 -37.5s17.5 -8.5 35.5 -8.5z" />
    <glyph glyph-name="uni043A" unicode="&#x43a;" horiz-adv-x="535" 
d="M479 25l21.001 0.000976562v-25h-54h-14c-17.333 0 -29.5 0.333008 -36.5 1s-14 3.66699 -21 9s-11.667 13.333 -14 24s-4.16602 26.667 -5.49902 48l-7 94c-2 28 -10.5 46.5 -25.5 55.5s-48.167 13.5 -99.5 13.5h-55v-220h79v-25h-222v25h70v810h-64v25
c54 0 99.667 2.33301 137 7v-597h53c27.333 0 48.666 1.83301 63.999 5.5s27.5 12 36.5 25s14.833 26 17.5 39s6 34.833 10 65.5l9 70h-55v25h185v-25h-70l-11 -75c-8 -52.667 -17.667 -87.834 -29 -105.501s-33.333 -28.5 -66 -32.5l-1 -1
c69.333 -5.33301 106.666 -36 111.999 -92l7 -80c2 -26 5.83301 -43.167 11.5 -51.5s18.167 -12.5 37.5 -12.5z" />
    <glyph glyph-name="uni043B" unicode="&#x43b;" horiz-adv-x="503" 
d="M432 25h61v-25h-211v25h74l-129 428l-126 -428h72v-25h-163v25h61l142 475h73z" />
    <glyph glyph-name="uni043C" unicode="&#x43c;" horiz-adv-x="688" 
d="M594 25h69v-25h-205v25h63v438h-2l-161 -463h-63l-161 464h-3v-439h76v-25h-179v25h70v450h-70v25h166l151 -430h2l150 430h155v-25h-58v-450z" />
    <glyph glyph-name="uni043D" unicode="&#x43d;" horiz-adv-x="566" 
d="M468 25h70v-25h-201v25h58v229h-224v-229h59v-25h-202v25h70v450h-70v25c58 0 105.667 2.33301 143 7v-228h224v196h-70v25c58 0 105.667 2.33301 143 7v-482z" />
    <glyph glyph-name="uni043E" unicode="&#x43e;" horiz-adv-x="534" 
d="M466 363c5.33301 -30 8.00098 -67.667 8.00098 -113s-2.66699 -83 -8 -113c-7.33301 -48 -25.5 -83.833 -54.5 -107.5s-77.167 -35.5 -144.5 -35.5s-115.5 11.833 -144.5 35.5s-47.167 59.5 -54.5 107.5c-5.33301 36 -8 73.667 -8 113s2.66699 77 8 113
c7.33301 47.333 25.666 83 54.999 107s77.333 36 144 36c66 0 113.667 -11.833 143 -35.5s48 -59.5 56 -107.5zM392.001 135c4.66699 37.333 7 75.668 7 115.001s-2.33301 77.666 -7 114.999c-2 18 -4.83301 33 -8.5 45s-9.66699 24.167 -18 36.5s-20.666 21.5 -36.999 27.5
s-36.833 9 -61.5 9s-45.167 -3 -61.5 -9s-28.666 -15.167 -36.999 -27.5s-14.333 -24.5 -18 -36.5s-6.5 -27 -8.5 -45c-4.66699 -46.667 -7 -85 -7 -115s2.33301 -68.333 7 -115c2 -18 4.83301 -33 8.5 -45s9.66699 -24.167 18 -36.5s20.666 -21.5 36.999 -27.5
s36.833 -9 61.5 -9s45.167 3 61.5 9s28.666 15.167 36.999 27.5s14.333 24.5 18 36.5s6.5 27 8.5 45z" />
    <glyph glyph-name="uni043F" unicode="&#x43f;" horiz-adv-x="571" 
d="M518 25l29.999 -0.00195312v-25h-92c-18.667 0 -32.5 2.83301 -41.5 8.5s-13.5 17.5 -13.5 35.5v319c0 16.667 -0.833008 30.334 -2.5 41.001s-5.5 22.834 -11.5 36.501s-16.5 24 -31.5 31s-34.5 10.5 -58.5 10.5c-35.333 0 -65.166 -13.5 -89.499 -40.5
s-36.5 -64.5 -36.5 -112.5v-304h79v-25h-222v25h70v450h-70v25c54 0 99.667 2.33301 137 7l1 -76v-19c11.333 30 31 53.167 59 69.5s61 24.5 99 24.5c54 0 92.5 -12 115.5 -36s34.5 -57.667 34.5 -101v-288c0 -37.333 14.667 -56 44 -56z" />
    <glyph glyph-name="uni0440" unicode="&#x440;" horiz-adv-x="563" 
d="M492 364c7.33301 -35.333 10.999 -72.001 10.999 -110.001c0 -44 -3.33301 -83.333 -10 -118c-9.33301 -47.333 -27.5 -83 -54.5 -107s-67.5 -36 -121.5 -36c-37.333 0 -68.666 6.16699 -93.999 18.5s-44 35.5 -56 69.5l1 -321h-73v713h-70v25c54 0 99.667 2.33301 137 7
l2 -111c14.667 74 64 111 148 111c58.667 0 101 -11.667 127 -35s43.667 -58.666 53 -105.999zM172.999 154.999c2.66699 -19.333 6.16699 -35.665 10.5 -48.998s11 -27.666 20 -42.999s22.5 -27 40.5 -35s40 -12 66 -12c36.667 0 62.667 8.66699 78 26s26 47.666 32 90.999
c4.66699 32 7 72.333 7 121c0 45.333 -2.66699 85.666 -8 120.999c-6 39.333 -17 67 -33 83s-41.333 24 -76 24c-45.333 0 -77.833 -11.833 -97.5 -35.5s-32.167 -54.834 -37.5 -93.501c-4 -28 -6 -61 -6 -99c0 -47.333 1.33301 -80.333 4 -99z" />
    <glyph glyph-name="uni0441" unicode="&#x441;" horiz-adv-x="477" 
d="M358 158l64.002 0.000976562v-23c0 -20 -2 -37.333 -6 -52s-11.667 -29.334 -23 -44.001s-29 -25.834 -53 -33.501s-53.667 -11.5 -89 -11.5s-64.5 3.16699 -87.5 9.5s-41 16.333 -54 30s-22.333 28.167 -28 43.5s-10.5 35.333 -14.5 60c-5.33301 36 -8 73.667 -8 113
s2.66699 77 8 113c8 49.333 23.667 85.5 47 108.5s66.333 34.5 129 34.5c42 0 72 -7.83301 90 -23.5s30 -36.5 36 -62.5l4 80h45v-151h-60c0 42 -8 74.833 -24 98.5s-46.333 35.5 -91 35.5c-10.667 0 -20.334 -0.5 -29.001 -1.5s-16.334 -3.16699 -23.001 -6.5
s-12.334 -6 -17.001 -8s-8.83398 -6.33301 -12.501 -13s-6.5 -11 -8.5 -13s-3.83301 -7.83301 -5.5 -17.5l-3 -17.5c-0.333008 -2 -1.16602 -9 -2.49902 -21s-2 -18.667 -2 -20c-4 -32.667 -6 -72 -6 -118c0 -43.333 2 -80.666 6 -111.999
c4.66699 -40 10.334 -65.667 17.001 -77c14.667 -27.333 46 -41 94 -41c41.333 0 69.5 8.33301 84.5 25s22.5 46.667 22.5 90v26z" />
    <glyph glyph-name="uni0442" unicode="&#x442;" horiz-adv-x="862" 
d="M809 25l29.999 0.00292969v-25h-92c-18.667 0 -32.5 2.83301 -41.5 8.5s-13.5 17.5 -13.5 35.5v319c0 17.333 -0.666992 31.166 -2 41.499s-4.33301 22.333 -9 36s-13.334 24 -26.001 31s-29 10.5 -49 10.5c-35.333 0 -67.166 -13.667 -95.499 -41
s-42.5 -64.666 -42.5 -111.999v-304h90v-25h-233v25h70v338c0 13.333 -0.333008 24.166 -1 32.499s-2.66699 18.666 -6 30.999s-8.16602 22 -14.499 29s-15.833 13.167 -28.5 18.5s-27.667 8 -45 8c-31.333 0 -60.666 -13.833 -87.999 -41.5s-41 -64.834 -41 -111.501v-304
h70v-25h-213v25h70v450h-70v25c53.333 0 98.666 2.33301 135.999 7l1 -76l1 -20c10.667 30.667 31.667 54.167 63 70.5s64 24.5 98 24.5c79.333 0 125.333 -31.667 138 -95c12 30 33.5 53.333 64.5 70s62.833 25 95.5 25c54 0 90.833 -11.5 110.5 -34.5
s29.5 -57.167 29.5 -102.5v-289c0 -36.667 14.667 -55 44 -55z" />
    <glyph glyph-name="uni0443" unicode="&#x443;" horiz-adv-x="543" 
d="M323 475l-0.00195312 25.001c54.667 0 100.667 2.33301 138 7v-76l-1 -471c0 -78 -14.333 -132.5 -43 -163.5s-80.667 -46.5 -156 -46.5c-38.667 0 -70.834 3.66699 -96.501 11s-44.667 18.166 -57 32.499s-20.666 29 -24.999 44s-6.5 32.833 -6.5 53.5v23h67v-16
c0 -47.333 8.83301 -80 26.5 -98s47.834 -27 90.501 -27c55.333 0 91.166 14.167 107.499 42.5s24.5 75.5 24.5 141.5v147c-5.33301 -21.333 -14.5 -39.5 -27.5 -54.5s-27.667 -25.833 -44 -32.5s-31.166 -11.167 -44.499 -13.5s-26.666 -3.5 -39.999 -3.5
c-55.333 0 -93.833 13.167 -115.5 39.5s-32.5 61.5 -32.5 105.5v330h-65v25c54.667 0 100.667 2.33301 138 7v-365c0 -78.667 30 -118 90 -118c90.667 0 136 68.667 136 206v245h-64z" />
    <glyph glyph-name="uni0444" unicode="&#x444;" horiz-adv-x="682" 
d="M622 262c0.666992 -48 -2.16309 -87.167 -8.49609 -117.5s-18.333 -57 -36 -80s-42.834 -39.5 -75.501 -49.5s-75 -15 -127 -15v-215h78v-25h-225v25h78v215c-98 0 -163.833 18.667 -197.5 56s-49.834 104 -48.501 200c1.33301 87.333 19 149.833 53 187.5
s98.333 56.5 193 56.5v261h-70v25c55.333 0 101.666 2.33301 138.999 7v-293c49.333 0 90.166 -4.83301 122.499 -14.5s57.5 -25 75.5 -46s30.667 -45.333 38 -73s11 -62.5 11 -104.5zM547.003 268c0 73.333 -12.167 126.668 -36.5 160.001s-69.5 49.666 -135.5 48.999v-454
c36.667 0 66.667 5.16699 90 15.5s40.833 26.833 52.5 49.5s19.5 47.667 23.5 75s6 62.333 6 105zM306.003 23.002v454c-67.333 0 -112.5 -16.833 -135.5 -50.5s-34.5 -89.834 -34.5 -168.501c0 -85.333 11.167 -145.666 33.5 -180.999s67.833 -53.333 136.5 -54z" />
    <glyph glyph-name="uni0445" unicode="&#x445;" horiz-adv-x="515" 
d="M445 25h65v-25h-194v25h45l-130 209l-131 -209h74v-25h-169v25h62l147 236l-135 217h-66v22h217v-22h-65l105 -170l107 170h-54v22h170v-22h-83l-123 -197z" />
    <glyph glyph-name="uni0446" unicode="&#x446;" horiz-adv-x="561" 
d="M460 25h96v-161h-50l-6 136h-104v101c-20 -71.333 -75 -107 -165 -107c-49.333 0 -85.5 11.5 -108.5 34.5s-34.5 60.5 -34.5 112.5v334h-65v25c54.667 0 100.667 2.33301 138 7v-362c0 -84.667 34 -127 102 -127c36 0 65.667 14.667 89 44s35 69.333 35 120v293h-64v25
c54 0 99.667 2.33301 137 7v-482z" />
    <glyph glyph-name="uni0447" unicode="&#x447;" horiz-adv-x="498" 
d="M405 25h70v-25h-217v25h78l-2 205l-31 -27.5c-6.66699 -5.66699 -19 -11.834 -37 -18.501s-38 -10 -60 -10c-54 0 -91 12.833 -111 38.5s-30 61.167 -30 106.5v156h-65v25c54.667 0 100.667 2.33301 138 7v-194c0 -34.667 5.5 -62.5 16.5 -83.5s32.833 -31.5 65.5 -31.5
c20 0 37.833 3.83301 53.5 11.5s27 14.834 34 21.501s14.833 16 23.5 28v216h-64v25c54.667 0 100.667 2.33301 138 7v-482z" />
    <glyph glyph-name="uni0448" unicode="&#x448;" horiz-adv-x="858" 
d="M800 16l34.9961 -0.000976562v-16h-92c-26 0 -41.667 4.83301 -47 14.5s-8 33.5 -8 71.5v15h-2c-8 -34 -27.5 -60.333 -58.5 -79s-64.5 -28 -100.5 -28c-83.333 0 -129.666 34.667 -138.999 104c-11.333 -33.333 -32.333 -59.166 -63 -77.499s-62.667 -27.5 -96 -27.5
c-54 0 -91 11.667 -111 35s-30 57.666 -30 102.999v344h-65v25c54.667 0 100.667 2.33301 138 7v-35l1 -335c0 -14.667 0.666992 -27 2 -37s4.33301 -22.333 9 -37s13.334 -26 26.001 -34s29 -12 49 -12c34.667 0 66.334 14 95.001 42s43 63.667 43 107v309h-65v25
c54.667 0 100.667 2.33301 138 7v-371c0 -14 0.833008 -26.167 2.5 -36.5s5.16699 -22.666 10.5 -36.999s15 -25.5 29 -33.5s31.667 -12 53 -12c30.667 0 59.834 14 87.501 42s41.5 63.333 41.5 106v310h-65v25c54.667 0 100.667 2.33301 138 7v-436
c0 -36.667 14.667 -55 44 -55z" />
    <glyph glyph-name="uni0449" unicode="&#x449;" horiz-adv-x="874" 
d="M756 25l102.998 0.000976562v-159h-49l-7 134h-114l-1 101h-2c-8 -34 -27.333 -60.333 -58 -79s-64.334 -28.334 -101.001 -29.001c-83.333 0.666992 -129.666 35.667 -138.999 105c-11.333 -33.333 -32.333 -59.166 -63 -77.499s-62.667 -27.5 -96 -27.5
c-54 0 -91 11.667 -111 35s-30 57.666 -30 102.999v344h-65v25c54.667 0 100.667 2.33301 138 7v-35l1 -336c0 -14.667 0.666992 -27 2 -37s4.33301 -22.333 9 -37s13.334 -26 26.001 -34s29 -12 49 -12c34.667 0 66.334 14 95.001 42s43 63.667 43 107v310h-65v25
c54.667 0 100.667 2.33301 138 7v-371c0 -11.333 0.333008 -21 1 -29s2.66699 -18.167 6 -30.5s8.16602 -22.333 14.499 -30s15.833 -14.667 28.5 -21s27.667 -9.5 45 -9.5c30.667 0.666992 59.834 15 87.501 43s41.5 63.333 41.5 106v310h-65v25
c54.667 0 100.667 2.33301 138 7v-482z" />
    <glyph glyph-name="uni044A" unicode="&#x44a;" horiz-adv-x="583" 
d="M528 149c0.666992 -54 -11.5 -92.166 -36.5 -114.499s-75.833 -33.833 -152.5 -34.5l-246 -1v26h65v450l-103 -1l-7 -93h-36l-2 119h276v-26h-54v-172l113 -1c71.333 -0.666992 119.5 -10.834 144.5 -30.501s37.833 -60.167 38.5 -121.5zM453 150.001
c0.666992 46.667 -9.33496 79.167 -30.002 97.5s-48.667 27.833 -84 28.5l-107 1v-252l121 1c36.667 0.666992 62.334 11.5 77.001 32.5s22.334 51.5 23.001 91.5z" />
    <glyph glyph-name="uni044B" unicode="&#x44b;" horiz-adv-x="739" 
d="M289 379c71.333 0 119.168 -14.168 143.501 -42.501s36.5 -77.5 36.5 -147.5c0 -71.333 -12.833 -121.666 -38.5 -150.999s-75.167 -44.333 -148.5 -45c-72.667 -0.666992 -121.5 13 -146.5 41s-37.833 78 -38.5 150l1 291h-70v26h200v-26h-56l-1 -174
c19.333 52 58.666 78 117.999 78zM716.002 474.999h-72v-450h72v-25h-215v25h70v450h-70v25h215v-25zM282.002 18.999c44.667 0 75.168 12.167 91.501 36.5s24.5 68.5 24.5 132.5c0 63.333 -7.33301 106.833 -22 130.5s-43.667 35.167 -87 34.5c-38.667 0 -68 -12 -88 -36
s-30 -67 -30 -129c0 -65.333 8.16699 -109.833 24.5 -133.5s45.166 -35.5 86.499 -35.5z" />
    <glyph glyph-name="uni044C" unicode="&#x44c;" horiz-adv-x="507" 
d="M452 149c0.666992 -54 -11.5 -92.166 -36.5 -114.499s-75.833 -33.833 -152.5 -34.5l-226 -1v26h45v450h-54v25h182v-25h-54v-173l113 -1c71.333 -0.666992 119.5 -10.834 144.5 -30.501s37.833 -60.167 38.5 -121.5zM377 150.001
c0.666992 46 -9.33301 78.168 -30 96.501s-48.667 27.833 -84 28.5l-107 1v-251l121 1c38 0.666992 64 10.667 78 30s21.333 50.666 22 93.999z" />
    <glyph glyph-name="uni044D" unicode="&#x44d;" horiz-adv-x="484" 
d="M416 363c5.33301 -30 8.00488 -67.6641 8.00488 -112.997s-2.66699 -83 -8 -113c-4 -25.333 -8.66699 -45.333 -14 -60s-14 -29.167 -26 -43.5s-29.333 -24.5 -52 -30.5s-51.667 -9 -87 -9c-70 0 -117.167 12.667 -141.5 38s-36.5 59.666 -36.5 102.999v23h59v-25
c0 -45.333 8.33301 -76 25 -92s48 -24 94 -24c12.667 0 24.167 1 34.5 3s18.833 4.16699 25.5 6.5s12.667 6.66602 18 12.999l12 14.5c2.66699 3.33301 5 9.5 7 18.5s3.33301 15.5 4 19.5s1.5 11.5 2.5 22.5s1.83301 18.167 2.5 21.5
c3.33301 32.667 5.66602 67.667 6.99902 105c-16 14.667 -31.667 22 -47 22c-16.667 0 -36.334 -7.5 -59.001 -22.5s-42 -22.5 -58 -22.5c-17.333 0 -31.833 4.5 -43.5 13.5s-24.167 22.833 -37.5 41.5l5 14c16.667 -15.333 36 -23 58 -23c10 0 25.667 5.16699 47 15.5
s41.666 15.5 60.999 15.5c28.667 0 53.334 -11 74.001 -33c0 26 -2.33301 59.333 -7 100c0 2.66699 -0.666992 9.16699 -2 19.5s-2.16602 17 -2.49902 20s-1.33301 8.83301 -3 17.5s-3.5 14.667 -5.5 18l-8.5 14.5c-3.66699 6.33301 -7.83398 10.833 -12.501 13.5
s-10.334 5.66699 -17.001 9s-14.334 5.66602 -23.001 6.99902s-18.334 2 -29.001 2c-43.333 0 -72.5 -8.66699 -87.5 -26s-24.5 -53 -28.5 -107l-56 -1v151h41l5 -96c2 15.333 4.33301 27.333 7 36s8 19 16 31s20.667 20.833 38 26.5s39 8.5 65 8.5
c62.667 0 105.667 -11.5 129 -34.5s39 -59.167 47 -108.5z" />
    <glyph glyph-name="uni044E" unicode="&#x44e;" horiz-adv-x="755" 
d="M687 363c5.33301 -30 8.00098 -67.667 8.00098 -113s-2.66699 -83 -8 -113c-7.33301 -48 -25.5 -83.833 -54.5 -107.5s-77.167 -35.5 -144.5 -35.5s-115.5 11.833 -144.5 35.5s-47.167 59.5 -54.5 107.5c-5.33301 32 -8 65 -8 99h-113v-211h49v-25h-192v25h70v814h-65v25
c54.667 0 100.667 2.33301 138 7v-610h113c0 34.667 2.66699 68.667 8 102c7.33301 47.333 25.666 83 54.999 107s77.333 36 144 36c66 0 113.667 -11.833 143 -35.5s48 -59.5 56 -107.5zM613.001 135c4 32 6.00195 70.332 6.00195 114.999c0 44 -2 82 -6 114
c-4 38 -14.333 67.333 -31 88s-48 31 -94 31s-77.333 -10.333 -94 -31s-27 -50 -31 -88c-4.66699 -37.333 -7 -75.333 -7 -114c0 -39.333 2.33301 -77.666 7 -114.999c2 -18 4.83301 -33 8.5 -45s9.66699 -24.167 18 -36.5s20.666 -21.5 36.999 -27.5s36.833 -9 61.5 -9
s45.167 3 61.5 9s28.666 15.167 36.999 27.5s14.333 24.5 18 36.5s6.5 27 8.5 45z" />
    <glyph glyph-name="uni044F" unicode="&#x44f;" horiz-adv-x="523" 
d="M430 475v-450h70v-25h-231v25h88v221h-99c-34.667 0 -57.5 -4.5 -68.5 -13.5s-17.5 -27.5 -19.5 -55.5l-7 -94c-2 -21.333 -4 -37.5 -6 -48.5s-6.66699 -19.167 -14 -24.5s-14.5 -8.33301 -21.5 -9s-19.5 -1 -37.5 -1h-12h-53v25h21c20 0 32.667 3 38 9s9 21.667 11 47
l7 90c2 30 13.167 51.667 33.5 65s43.5 20.333 69.5 21c-43.333 2.66699 -74 13.5 -92 32.5s-27 48.5 -27 88.5c0 48.667 12.5 81.167 37.5 97.5s68.833 24.5 131.5 24.5h251v-25h-70zM357 475l-80 0.000976562c-50 0 -82.833 -5.83301 -98.5 -17.5
s-23.5 -38.834 -23.5 -81.501c0 -42 10.333 -70 31 -84s54 -21 100 -21h71v204z" />
    <glyph glyph-name="uni0450" unicode="&#x450;" horiz-adv-x="493" 
d="M197 798c12 2 23.333 -7.00098 34 -27.001c26 -52 53 -101.333 81 -148l-13 -7c-30.667 40.667 -57.667 73.334 -81 98.001c-27.333 29.333 -41 49.333 -41 60c0 14 6.66699 22 20 24zM370 156.999l63.999 0.000976562c0 -56.667 -12.833 -98.167 -38.5 -124.5
s-69.167 -39.5 -130.5 -39.5s-109.5 11.667 -144.5 35s-54.5 66 -58.5 128c-2 30.667 -3 62 -3 94s1 63.333 3 94c4 62 22.833 104.667 56.5 128s79.167 35 136.5 35c52 0 94 -11.833 126 -35.5s50 -66.167 54 -127.5v-98h-301c0 -28 1 -60 3 -96
c3.33301 -46.667 14.333 -80.667 33 -102s50.334 -32 95.001 -32c42 0 70 10.667 84 32s21 57.666 21 108.999zM136.999 350c-2 -26.667 -3 -52.999 -3 -78.999h236c0 33.333 -0.333008 58.666 -1 75.999c-0.666992 13.333 -1.5 24.5 -2.5 33.5s-3.66699 20.667 -8 35
s-10.166 26 -17.499 35s-18.333 16.833 -33 23.5s-32.334 10 -53.001 10c-40 0 -68.833 -10.667 -86.5 -32s-28.167 -55.333 -31.5 -102z" />
    <glyph glyph-name="uni0451" unicode="&#x451;" horiz-adv-x="497" 
d="M174 586c-28.667 0 -43 14.333 -43 43s14.333 43 43 43s43 -14.333 43 -43s-14.333 -43 -43 -43zM323 586c-28.667 0 -43 14.333 -43 43s14.333 43 43 43s43 -14.333 43 -43s-14.333 -43 -43 -43zM370 157l63.999 0.000976562c0 -56.667 -12.833 -98.167 -38.5 -124.5
s-69.167 -39.5 -130.5 -39.5s-109.5 11.667 -144.5 35s-54.5 66 -58.5 128c-2 30.667 -3 62 -3 94s1 63.333 3 94c4 62 22.833 104.667 56.5 128s79.167 35 136.5 35c52 0 94 -11.833 126 -35.5s50 -66.167 54 -127.5v-98h-301c0 -28 1 -60 3 -96
c3.33301 -46.667 14.333 -80.667 33 -102s50.334 -32 95.001 -32c42 0 70 10.667 84 32s21 57.666 21 108.999zM136.999 350.001c-2 -26.667 -3 -52.999 -3 -78.999h236c0 33.333 -0.333008 58.666 -1 75.999c-0.666992 13.333 -1.5 24.5 -2.5 33.5s-3.66699 20.667 -8 35
s-10.166 26 -17.499 35s-18.333 16.833 -33 23.5s-32.334 10 -53.001 10c-40 0 -68.833 -10.667 -86.5 -32s-28.167 -55.333 -31.5 -102z" />
    <glyph glyph-name="uni0452" unicode="&#x452;" horiz-adv-x="552" 
d="M465 361l1 -321.002c-2 -69.333 -18 -117.166 -48 -143.499s-84 -39.5 -162 -39.5c-11.333 0 -25 1 -41 3l2 24c12 -2.66699 26 -4 42 -4c50 0 84.833 12.167 104.5 36.5s29.5 68.5 29.5 132.5v305c0 13.333 -0.166992 24 -0.5 32s-2.16602 18.833 -5.49902 32.5
s-8 24.334 -14 32.001s-15.167 14.5 -27.5 20.5s-27.166 9 -44.499 9c-33.333 0 -63.333 -14.333 -90 -43s-40 -65 -40 -109v-303h99v-25h-242v25h70v584h-70v25h70v201h-70v25c58 0 105.667 2.33301 143 7v-233h165v-25h-165v-205l1 -1c10 32 29.5 57.167 58.5 75.5
s62.5 27.5 100.5 27.5c51.333 0 86.666 -12.333 105.999 -37s28.666 -60.667 27.999 -108z" />
    <glyph glyph-name="uni0453" unicode="&#x453;" horiz-adv-x="476" 
d="M269 771c9.33301 20 20.665 29 33.998 27s20 -10 20 -24c0 -10.667 -13.667 -30.667 -41 -60c-12 -12.667 -22.167 -24.167 -30.5 -34.5s-17.666 -22.833 -27.999 -37.5s-17.166 -24 -20.499 -28l-17 11c31.333 47.333 59 96 83 146zM427.999 158l0.000976562 -23.999
c0 -42.667 -12.833 -76.667 -38.5 -102s-74.5 -38 -146.5 -38c-62.667 0 -108.5 10.833 -137.5 32.5s-43.5 54.834 -43.5 99.501c0 39.333 13.5 68.666 40.5 87.999s66.833 36 119.5 50c46 12 76 27.833 90 47.5s21 44.834 21 75.501c0 64 -25.667 96 -77 96
c-75.333 0 -114 -41 -116 -123h-62v140h47l4 -96c13.333 68 56.333 102 129 102c98 0 147 -37.667 147 -113c0 -38.667 -9.5 -69.167 -28.5 -91.5s-59.5 -41.5 -121.5 -57.5c-46.667 -12.667 -77.834 -27.834 -93.501 -45.501s-23.834 -42.5 -24.501 -74.5
c-1.33301 -72 35 -107.667 109 -107c42.667 0.666992 72.334 9.16699 89.001 25.5s25 46.166 25 89.499v26h68z" />
    <glyph glyph-name="uni0458" unicode="&#x458;" horiz-adv-x="267" 
d="M134 754c18 0 31.5 -5.33301 40.5 -16s13.5 -23.667 13.5 -39c0 -36 -18 -54 -54 -54c-19.333 0 -33.333 4.16699 -42 12.5s-13 21.833 -13 40.5c0 37.333 18.333 56 55 56zM173 510l0.000976562 -51.999l1 -585c0 -47.333 -10 -79.5 -30 -96.5s-55.667 -25.5 -107 -25.5
c-20 0 -38.667 1.33301 -56 4l1 25c17.333 -2.66699 31.666 -4 42.999 -4c8 0 15.333 0.5 22 1.5s12.5 2.16699 17.5 3.5s9.5 3.83301 13.5 7.5s7.16699 6.16699 9.5 7.5s4.5 5.16602 6.5 11.499s3.5 10.333 4.5 12s1.66699 6.66699 2 15s0.5 13.333 0.5 15v17.5v18l-1 563
v27h-70v25c42 0 89.667 3.33301 143 10z" />
    <glyph glyph-name="uni0459" unicode="&#x459;" horiz-adv-x="766" 
d="M415 301l98 -0.000976562c70 0 120.5 -11.667 151.5 -35s46.5 -58.666 46.5 -105.999c0 -54 -16.333 -94.167 -49 -120.5s-85 -39.5 -157 -39.5h-233v25h77l1 447l-242 -447h60v-25h-163v25h72l243 450h-55v25h213v-25h-63v-174zM415 24.999h78.999
c57.333 0 95.333 10.167 114 30.5s28 55.5 28 105.5c0 41.333 -10.667 70.833 -32 88.5s-58.666 26.5 -111.999 26.5h-77v-251z" />
    <glyph glyph-name="uni045A" unicode="&#x45a;" horiz-adv-x="792" 
d="M441 301l98 -0.000976562c70 0 120.5 -11.667 151.5 -35s46.5 -58.666 46.5 -105.999c0 -54 -16.333 -94.167 -49 -120.5s-85 -39.5 -157 -39.5h-157v254h-215v-229h59v-25h-190v25h58v450h-58v25h190v-25h-59v-196h215v196h-58v25h184v-25h-59v-174zM441 25.999
l79 0.000976562c57.333 0 95.333 10 114 30s28 55 28 105c0 40.667 -10.5 69.667 -31.5 87s-58.5 26.666 -112.5 27.999h-77v-250z" />
    <glyph glyph-name="uni045B" unicode="&#x45b;" horiz-adv-x="568" 
d="M515 25l29.999 -0.000976562v-25h-92c-18.667 0 -32.5 2.83301 -41.5 8.5s-13.5 17.5 -13.5 35.5v318c0 16.667 -0.833008 30.334 -2.5 41.001s-5.5 22.834 -11.5 36.501s-16.5 24 -31.5 31s-34.5 10.5 -58.5 10.5c-35.333 0 -65.166 -13.5 -89.499 -40.5
s-36.5 -64.5 -36.5 -112.5v-303h79v-25h-222v25h70v579h-70v25h70v206h-65v25c54 0 100 2.33301 138 7v-238h165v-25h-165v-191c10.667 29.333 29.5 52.166 56.5 68.499s59.167 24.5 96.5 24.5c54 0 92.5 -12 115.5 -36s34.5 -57.667 34.5 -101v-288
c0 -37.333 14.667 -56 44 -56z" />
    <glyph glyph-name="uni045D" unicode="&#x45d;" horiz-adv-x="575" 
d="M342 623l-13 -7.00098c-30.667 40.667 -57.667 73.334 -81 98.001c-27.333 29.333 -41 49.333 -41 60c0 14 6.66699 22 20 24c12 2 23.333 -7 34 -27c26 -52 53 -101.333 81 -148zM509 24.999l26.002 -0.00195312v-25h-77c-30.667 0 -49.334 4.83301 -56.001 14.5
s-9.33398 33.5 -8.00098 71.5c-22 -61.333 -74.667 -92 -158 -92c-49.333 0 -85.5 11.5 -108.5 34.5s-34.5 60.5 -34.5 112.5v334h-70v25c58 0 105.667 2.33301 143 7v-369c0 -16 1 -29.667 3 -41s6.16699 -23.666 12.5 -36.999s16.833 -23.666 31.5 -30.999s33 -11 55 -11
c35.333 0 64.833 15.167 88.5 45.5s35.5 70.833 35.5 121.5v290h-70v25c58 0 105.667 2.33301 143 7v-436c0 -19.333 2.83301 -31.833 8.5 -37.5s17.5 -8.5 35.5 -8.5z" />
    <glyph glyph-name="uni045F" unicode="&#x45f;" horiz-adv-x="563" 
d="M540 475h-70v-450h70v-25h-225v-158h-54v158h-233v25h70v450h-70v25h202v-25h-59v-450h226v450h-58v25h201v-25z" />
    <glyph glyph-name="uni0490" unicode="&#x490;" horiz-adv-x="553" 
d="M547 835h-335v-810h88v-25h-249v25h78v810h-78v25h432v171l65 -1z" />
    <glyph glyph-name="uni0491" unicode="&#x491;" horiz-adv-x="417" 
d="M358 635h54v-160h-241v-450h59v-25h-202v25h70v450h-70v25h330v135z" />
    <glyph glyph-name="uni04EE" unicode="&#x4ee;" horiz-adv-x="640" 
d="M474 982v-23h-278v23h278zM385 860l163.997 -0.00195312l-1 -646c0 -79.333 -18.5 -136 -55.5 -170s-95.167 -51 -174.5 -51c-135.333 0 -203.666 57 -204.999 171v29h68v-27c0 -52 9.66699 -89.333 29 -112s55.666 -34 108.999 -34c16 0 30.667 1.16699 44 3.5
s24.833 5.83301 34.5 10.5s18.334 10.334 26.001 17.001s14 13.834 19 21.501s9.33301 16.167 13 25.5s6.33398 19.166 8.00098 29.499s3.16699 20.833 4.5 31.5s2 21.667 2 33v33.5v33.5l1 171h-1c-12 -41.333 -31.167 -70.833 -57.5 -88.5s-64.5 -26.5 -114.5 -26.5
c-65.333 0 -112.666 15.5 -141.999 46.5s-44 71.5 -44 121.5v352h-77v25h160v-346c0 -114 38.667 -171 116 -171c56 0 95.833 17.333 119.5 52s35.5 85.334 35.5 152.001v288h-81v25z" />
    <glyph glyph-name="uni04EF" unicode="&#x4ef;" horiz-adv-x="543" 
d="M408 646v-23h-278v23h278zM323 475l-0.00195312 25.001c54.667 0 100.667 2.33301 138 7v-76l-1 -471c0 -78 -14.333 -132.5 -43 -163.5s-80.667 -46.5 -156 -46.5c-38.667 0 -70.834 3.66699 -96.501 11s-44.667 18.166 -57 32.499s-20.666 29 -24.999 44
s-6.5 32.833 -6.5 53.5v23h67v-16c0 -47.333 8.83301 -80 26.5 -98s47.834 -27 90.501 -27c55.333 0 91.166 14.167 107.499 42.5s24.5 75.5 24.5 141.5v147c-5.33301 -21.333 -14.5 -39.5 -27.5 -54.5s-27.667 -25.833 -44 -32.5s-31.166 -11.167 -44.499 -13.5
s-26.666 -3.5 -39.999 -3.5c-55.333 0 -93.833 13.167 -115.5 39.5s-32.5 61.5 -32.5 105.5v330h-65v25c54.667 0 100.667 2.33301 138 7v-365c0 -78.667 30 -118 90 -118c90.667 0 136 68.667 136 206v245h-64z" />
    <glyph glyph-name="nonmarkingreturn" horiz-adv-x="333" 
 />
    </font>
</defs>
</svg>
