<svg xmlns="http://www.w3.org/2000/svg" width="472" height="232" viewBox="0 0 472 232"><defs><clipPath id="r3qra"><path fill="#fff" d="M1 231.994c16.235-134.823 141.994-176.233 180-148 68.5 50.89-26.828 133.177-69 65.002-35.765-57.819 71.765-154.193 203-147 94.187 5.16 155 38.998 155 38.998"/></clipPath><clipPath id="r3qrb"><path fill="#fff" d="M466 31.996l4 9.997-10 3"/></clipPath></defs><g><g><g><path fill="none" stroke="#fff" stroke-miterlimit="20" stroke-width="4" d="M1 231.994c16.235-134.823 141.994-176.233 180-148 68.5 50.89-26.828 133.177-69 65.002-35.765-57.819 71.765-154.193 203-147 94.187 5.16 155 38.998 155 38.998v0" clip-path="url(&quot;#r3qra&quot;)"/></g><g><path fill="none" stroke="#fff" stroke-miterlimit="20" stroke-width="4" d="M466 31.996v0l4 9.997v0l-10 3v0" clip-path="url(&quot;#r3qrb&quot;)"/></g></g></g></svg>