<svg xmlns="http://www.w3.org/2000/svg" width="150" height="150" fill="none"  xmlns:v="https://vecta.io/nano"><path d="M146.341 69.079c-1.407 0-6.754 1.974-9.568 3.102-.281-1.128-1.407-1.974-2.814-1.974s-2.815.846-2.815 1.974l-5.347-.846c-.844-11.56-5.347-21.71-12.382-29.887l3.095-4.511c.845.564 2.533.564 3.377-.564 1.126-1.128 1.408-2.538.563-3.383 2.815-1.128 8.162-3.383 9.006-4.511 1.126-1.41.281-4.229-1.689-6.485-2.251-1.974-5.065-2.82-6.472-1.692-1.126.846-3.378 6.203-4.503 9.023-.845-.564-2.533-.282-3.377.564-1.126 1.128-1.407 2.538-.563 3.383l-4.503 3.102c-8.161-7.049-18.574-11.56-29.831-12.406l-.844-5.357c1.126-.282 1.97-1.41 1.97-2.82s-.844-2.538-1.97-2.82c1.126-2.82 3.096-8.177 3.096-9.586C80.488 1.41 77.955 0 74.859 0s-5.629 1.41-5.91 3.383c0 1.41 1.97 6.767 3.096 9.586-1.126.282-1.97 1.41-1.97 2.82s.844 2.82 1.97 2.82l-.844 5.357c-11.538.846-21.67 5.357-29.831 12.406l-4.503-3.102c.563-.846.563-2.538-.563-3.383-1.126-1.128-2.533-1.41-3.377-.564-1.126-2.82-3.377-7.895-4.503-9.022-1.407-1.128-4.221-.282-6.191 1.974-2.251 1.974-3.096 4.793-1.97 6.485.844 1.128 6.191 3.383 9.006 4.511-.563.846-.281 2.538.563 3.383 1.126 1.128 2.533 1.41 3.377.564l3.096 4.511c-7.036 8.177-11.538 18.609-12.383 29.887l-5.347.846c-.281-1.128-1.407-1.974-2.814-1.974s-2.533.846-2.814 1.974c-2.814-1.128-8.161-3.102-9.568-3.102C1.407 69.643 0 72.181 0 75.282s1.407 5.639 3.377 5.921c1.407 0 6.754-1.974 9.568-3.102.281 1.128 1.407 1.974 2.814 1.974s2.814-.846 2.814-1.974l5.347.846c.844 11.56 5.347 21.711 12.383 29.888l-2.814 4.229c-.844-.564-2.533-.564-3.377.564-1.126 1.128-1.407 2.537-.563 3.383-2.814 1.128-7.88 3.384-9.006 4.512-1.126 1.409-.281 4.229 1.689 6.485 2.252 2.255 5.066 3.101 6.473 1.691 1.126-.846 3.377-6.203 4.503-9.022.844.564 2.533.282 3.377-.564 1.126-1.128 1.407-2.538.563-3.384l4.503-3.101c8.161 7.049 18.574 11.56 29.831 12.406l.844 5.357c-1.126.282-1.97 1.41-1.97 2.82s.844 2.537 1.97 2.819c-1.126 2.82-3.096 8.177-3.096 9.587.281 1.973 2.814 3.383 5.91 3.383s5.629-1.41 5.91-3.383c0-1.41-1.97-6.767-3.096-9.587 1.126-.282 1.97-1.41 1.97-2.819s-.844-2.82-1.97-2.82l.844-5.357c11.538-.846 21.67-5.357 29.831-12.406l4.503 3.101c-.563.846-.563 2.538.563 3.384 1.126 1.128 2.533 1.41 3.377.564 1.126 2.819 3.377 8.176 4.503 9.022 1.407 1.128 4.221.282 6.473-1.691 2.251-2.256 3.095-5.076 1.688-6.485-.844-1.128-6.191-3.384-9.005-4.512.563-.846.281-2.537-.563-3.383-1.126-1.128-2.533-1.41-3.377-.564l-3.096-4.511c7.036-8.177 11.539-18.609 12.383-29.888l5.347-.846c.281 1.128 1.407 1.974 2.814 1.974s2.533-.846 2.814-1.974c2.815 1.128 8.162 3.102 9.569 3.102 1.97-.282 3.377-2.82 3.377-5.921-.563-2.82-1.97-5.639-3.659-5.921zM30.957 76.974c-1.126 0-1.97-.846-1.97-1.974s.844-1.974 1.97-1.974 1.97.846 1.97 1.974-.844 1.974-1.97 1.974zm73.452-34.398c.844-.846 1.97-.846 2.814 0s.845 1.974 0 2.819-1.97.846-2.814 0c-.563-.846-.563-1.974 0-2.819zm-29.55-13.252c1.126 0 1.97.846 1.97 1.974s-.844 1.974-1.97 1.974-1.97-.846-1.97-1.974.844-1.974 1.97-1.974zM42.495 42.575c.844-.846 1.97-.846 2.814 0s.844 1.974 0 2.819-1.97.846-2.814 0c-.563-.846-.563-1.974 0-2.819zm5.066 8.177l2.251 2.256c.563.564 1.126.564 1.689.282l3.096 3.102c-.844 1.974 0 5.075 2.533 7.613 2.814 2.82 6.754 3.665 8.443 1.974-2.251 2.256-3.658 5.357-3.658 8.741v-.846H50.938c-.281 0-.563-.282-.563-.846s.282-.846.563-.846h11.539v-.282c0-.846-.844-1.692-1.689-1.692H49.812c-.563 0-1.97 1.692-2.814 3.102h-3.377c-.281-.564-.844-1.128-1.407-1.128h-3.659c.563-7.895 3.659-15.508 9.006-21.429zm-2.251 56.673c-.844.846-1.97.846-2.814 0s-.844-1.974 0-2.82 1.97-.846 2.814 0 .844 1.974 0 2.82zm2.251-8.177c-5.347-5.921-8.724-13.816-9.287-22.274h3.659c.563 0 1.407-.564 1.407-1.128h3.096c.844 1.41 2.251 3.383 2.814 3.383h10.976c.844 0 1.689-.564 1.689-1.41v-.564H50.938c-.281 0-.563-.282-.563-.846s.282-.846.563-.846h11.539v-.846c0 3.383 1.407 6.485 3.658 8.741-1.689-1.692-5.628-.846-8.443 1.974-2.533 2.538-3.377 5.639-2.533 7.613l-3.096 3.102c-.563-.282-1.407-.282-1.689.282l-2.814 2.819zm27.298 21.711c-1.126 0-1.97-.846-1.97-1.974s.844-1.974 1.97-1.974 1.97.846 1.97 1.974-.844 1.974-1.97 1.974zm32.364-13.534c-.844.846-1.97.846-2.814 0s-.844-1.974 0-2.82 1.97-.846 2.814 0 .845 1.974 0 2.82zm-5.065-8.177l-2.252-2.256c-.563-.564-1.126-.564-1.689-.282l-3.096-3.102c.844-1.974 0-5.075-2.533-7.613-2.814-2.82-6.754-3.665-8.443-1.974s-.844 5.639 1.97 8.459c2.533 2.538 5.629 3.383 7.599 2.538l3.096 3.102c-.281.564-.281 1.41.281 1.692l2.251 2.256c-5.91 5.357-13.508 8.74-21.951 9.304v-3.665c0-.564-.563-1.41-1.126-1.41v-3.383c1.126-.846 3.096-2.256 3.096-2.82V89.098c0-.846-.844-1.692-1.689-1.692h-.281v11.56c0 .282-.281.564-.844.564s-.844-.282-.844-.564V87.688h-.844-.844v11.278c0 .282-.281.564-.844.564s-.844-.282-.844-.564V87.688h-.563c-.844 0-1.407.846-1.407 1.692v10.996c0 .564 1.97 1.974 3.377 2.819v3.102c-.563.282-1.126.846-1.126 1.41v3.665c-8.443-.564-16.323-3.947-22.233-9.304l2.251-2.256c.563-.564.563-1.128.281-1.692l3.096-3.102c1.97.846 5.066 0 7.599-2.538 2.814-2.82 3.659-6.767 1.97-8.459 2.252 2.256 5.347 3.665 8.724 3.665 7.036 0 12.383-5.639 12.383-12.406 0-7.049-5.628-12.406-12.383-12.406-3.377 0-6.473 1.41-8.724 3.665 1.689-1.692.844-5.639-1.97-8.459-2.533-2.538-5.629-3.383-7.599-2.538l-3.096-3.101c.281-.564.281-1.41-.281-1.692l-2.251-2.256c5.91-5.357 13.79-8.741 22.233-9.305v3.665c0 .564.563 1.41 1.126 1.41v3.102c-1.407.846-3.377 2.256-3.377 2.82v10.996c0 .846.563 1.692 1.407 1.692h.563V51.034c0-.282.281-.564.844-.564s.844.282.844.564v11.56h.844.844v-11.56c0-.282.281-.564.844-.564s.844.282.844.564v11.56h.281c.844 0 1.689-.846 1.689-1.692V49.906c0-.564-1.689-1.974-3.096-2.819v-3.383c.563-.282 1.126-.846 1.126-1.41v-3.665c8.443.564 16.041 3.947 21.951 9.023l-2.251 2.256c-.563.564-.563 1.128-.281 1.692l-3.096 3.101c-1.97-.846-5.066 0-7.599 2.538-2.814 2.819-3.658 6.767-1.97 8.459s5.629.846 8.443-1.974c2.533-2.538 3.377-5.639 2.533-7.613l3.096-3.102c.563.282 1.407.282 1.689-.282l2.252-2.256a36.22 36.22 0 0 1 9.287 21.993h-3.659c-.563 0-1.407.564-1.407 1.128h-3.377c-.844-1.128-2.252-3.102-2.814-3.102H89.212c-.844 0-1.689.846-1.689 1.692v.282h11.257c.281 0 .563.282.563.846s-.281.846-.563.846H87.524v1.41h11.257c.281 0 .563.282.563.846s-.281.846-.563.846H87.524v.564c0 .846.844 1.41 1.689 1.41h10.976c.562 0 1.97-1.974 2.814-3.383h3.096c.281.564.844 1.128 1.407 1.128h3.658c-.281 8.741-3.658 16.353-9.005 22.274zM66.979 75c0-4.229 3.377-7.895 7.88-7.895 4.221 0 7.88 3.383 7.88 7.895 0 4.229-3.377 7.895-7.88 7.895-4.221 0-7.88-3.383-7.88-7.895zm51.783 1.974c-1.126 0-1.97-.846-1.97-1.974s.844-1.974 1.97-1.974 1.97.846 1.97 1.974-.845 1.974-1.97 1.974z" fill="#ffd600"/></svg>