<svg xmlns="http://www.w3.org/2000/svg" width="245" height="245" viewBox="0 0 245 245"><g><g><g opacity=".3"><path fill="#45b5ff" d="M122.5-.001c67.655 0 122.5 54.845 122.5 122.5S190.155 245 122.5 245 0 190.155 0 122.5 54.845 0 122.5 0z"/></g><g opacity=".6"><path fill="#45b5ff" d="M123.5 66c31.756 0 57.5 25.743 57.5 57.5 0 31.755-25.744 57.5-57.5 57.5S66 155.255 66 123.5C66 91.742 91.744 66 123.5 66z"/></g><g><path fill="#45b5ff" d="M123 79.999c23.748 0 43 19.252 43 43s-19.252 43-43 43-43-19.252-43-43 19.252-43 43-43z"/></g><g><path fill="#fff" d="M137.938 122.459l-21 12.124v-24.25z"/></g></g></g></svg>